<?xml version="1.0" encoding="UTF-8"?>
<svg xmlns="http://www.w3.org/2000/svg" version="1.1" viewBox="0 0 200 200">
  <!-- Generator: Adobe Illustrator 29.1.0, SVG Export Plug-In . SVG Version: 2.1.0 Build 142)  -->
  <defs>
    <style>
      .st0 {
        stroke: #32c800;
      }

      .st0, .st1, .st2, .st3, .st4, .st5 {
        display: none;
      }

      .st0, .st4 {
        fill: none;
        stroke-miterlimit: 10;
        stroke-width: .25px;
      }

      .st1, .st3 {
        fill: #efefef;
      }

      .st2 {
        fill: #32c800;
      }

      .st3 {
        font-family: Poppins-ExtraBold, Poppins;
        font-size: 112px;
        font-weight: 700;
      }

      .st6 {
        fill: #191919;
      }

      .st4 {
        stroke: #efefef;
      }
    </style>
  </defs>
  <g id="Layer_1" class="st5">
    <rect class="st6" x="0" y="0" width="200" height="200"/>
  </g>
  <g id="Layer_2">
    <text class="st3" transform="translate(39.22 138.44)"><tspan x="0" y="0">X</tspan></text>
    <polyline class="st1" points="41.58 138.44 94 59.48 128.35 59.48 128.35 138.44"/>
    <polygon class="st2" points="84.97 106.24 84.97 138.44 106.27 138.44 106.27 59.48 94 59.48 84.97 73.08 84.97 106.24"/>
    <polygon class="st4" points="84.97 40.97 84.97 73.17 106.27 73.17 106.27 -5.79 94 -5.79 84.97 7.81 84.97 40.97"/>
    <polygon class="st0" points="41.58 106.24 41.58 138.44 62.89 138.44 62.89 59.48 50.61 59.48 41.58 73.08 41.58 106.24"/>
    <g>
      <polygon class="st6" points="78.96 36.63 3.01 151.06 33.88 151.06 96.75 56.46 96.75 36.63 78.96 36.63"/>
      <g id="D">
        <path class="st6" d="M168.84,43.86c9.03,4.82,15.99,11.55,20.86,20.21,4.87,8.66,7.3,18.56,7.3,29.7s-2.46,20.89-7.38,29.54c-4.92,8.66-11.9,15.45-20.94,20.37-9.04,4.92-19.51,7.38-31.41,7.38h-45.28V36.63h45.28c12.01,0,22.53,2.41,31.57,7.22ZM156.74,115.35c5.3-5.08,7.95-12.28,7.95-21.59s-2.65-16.69-7.95-21.83c-5.3-5.14-12.61-7.71-21.91-7.71h-11.04v58.75h11.04c9.3,0,16.61-2.54,21.91-7.63Z"/>
      </g>
    </g>
    <path class="st4" d="M128.22,78.52h-35.12,35.12Z"/>
  </g>
</svg>