<?xml version="1.0" encoding="UTF-8"?>
<svg xmlns="http://www.w3.org/2000/svg" version="1.1" xmlns:xlink="http://www.w3.org/1999/xlink" viewBox="0 0 100 100">
  <!-- Generator: Adobe Illustrator 29.1.0, SVG Export Plug-In . SVG Version: 2.1.0 Build 142)  -->
  <defs>
    <style>
      .st0 {
        isolation: isolate;
      }

      .st1 {
        fill: #efefef;
      }

      .st2 {
        fill: #191919;
      }

      .st3 {
        display: none;
      }
    </style>
  </defs>
  <g id="Layer_1" class="st3">
    <g id="Layer_11" data-name="Layer_1">
      <rect class="st2" width="100" height="100"/>
    </g>
    <g id="Layer_2" class="st3">
      <image class="st0" width="513" height="513" transform="scale(.2)" xlink:href="figmaLogo-1.png"/>
    </g>
    <g id="Layer_3" class="st3">
      <polygon class="st1" points="50.1 33.2 66.8 33.2 66.8 .2 33 .2 33 33.2 33 66.3 50.1 81.6 50.1 33.2"/>
      <circle class="st1" cx="66.8" cy="49.9" r="16.7"/>
      <circle class="st1" cx="66.8" cy="16.9" r="16.7"/>
      <circle class="st1" cx="33.4" cy="16.9" r="16.7"/>
      <circle class="st1" cx="33.4" cy="49.9" r="16.7"/>
      <circle class="st1" cx="33.4" cy="83.3" r="16.7"/>
    </g>
  </g>
  <g id="Layer_21" data-name="Layer_2" class="st3">
    <path class="st1" d="M72,34.5v27c0,1.3.2,3.5,1.8,5.2,2.6,2.8,8.1,3.1,13-.1v-32h11.9v36.4l.7,7.7h-10.5l-1.4-3.4c-6.2,5.2-15.8,5.6-21,1.9s-6.4-15.2-6.4-15.6v-27h12Z"/>
    <image class="st3" width="500" height="500" transform="scale(.2)" xlink:href="AuLogo.png"/>
    <polygon class="st1" points="20.3 20.6 35.5 20.6 56.2 78.5 43.4 78.5 38.3 64.5 17.5 64.5 12.9 78.5 1 78.5 20.3 23.8 20.3 20.6"/>
    <polygon class="st2" points="27.7 30.8 35.2 53.9 20.5 53.9 27.7 30.8"/>
  </g>
  <g id="Layer_31" data-name="Layer_3">
    <image class="st3" width="500" height="500" transform="translate(-.4 -.4) scale(.2)" xlink:href="AiLogo.png"/>
    <polygon class="st1" points="31.8 20.2 49.1 20.2 67.2 78.4 53.2 78.4 48.7 63.4 31.8 63.4 27.7 78.4 14 78.4 31.8 20.2"/>
    <polygon class="st2" points="46.9 53.7 33.6 53.7 40.1 29 46.9 53.7"/>
    <rect class="st1" x="72.5" y="36.1" width="13" height="42.2"/>
    <circle class="st1" cx="79" cy="24.4" r="6.5"/>
  </g>
</svg>