<?xml version="1.0" encoding="UTF-8"?>
<svg id="Layer_2" xmlns="http://www.w3.org/2000/svg" version="1.1" viewBox="0 0 220 65">
  <!-- Generator: Adobe Illustrator 29.1.0, SVG Export Plug-In . SVG Version: 2.1.0 Build 142)  -->
  <defs>
    <style>
      .st0 {
        fill: #2727ff;
      }

      .st1 {
        fill: #efefef;
      }

      .st2 {
        display: none;
      }
    </style>
  </defs>
  <path class="st0" d="M104.3,3.7c-17.3-2.8-35.1-2.7-52.3.3-8.7,1.5-17.4,3.8-25.7,6.8-4.1,1.5-8.2,3.1-12.1,4.9-3.5,1.6-7.1,3.2-10,5.7C1.5,23.7-.2,26.9,0,30.5c.4,4.1,2.8,8,5.5,11,2.7,3,5.9,5.1,9.2,7,3.6,2.1,7.3,3.9,11.1,5.5,15.4,6.3,32.2,8.4,48.7,9,18.2.7,36.5,0,54.6-1.1,19.4-1.1,38.8-3.1,57.9-6.5,9-1.6,18-3.6,26.4-7.2,1.8-.7,3.9-1.4,5.3-2.8s1.3-3.2.7-4.9c-1.4-3.8-4.2-7.2-7.6-9.4-3.1-2.1-6.6-3.5-10.2-4.6-4.2-1.4-8.5-2.5-12.8-3.7-9-2.4-18.1-4.4-27.3-5.9-18.1-3.1-36.6-4.7-55-4.7-18.5,0-37,1.5-55.3,4.7-4.5.8-8.9,1.6-13.3,2.6-.5.1,1.2,4.7,2.4,4.4,17.3-3.7,35-6,52.7-6.9,17.9-.9,35.8-.2,53.6,1.9,17.6,2.1,35,5.6,52.1,10.6,3.7,1.1,7.4,2.1,10.9,3.7,1.7.8,3.3,1.6,4.8,2.7.7.5,1.3,1,1.9,1.7.3.3.6.6.9,1,0,0,.1.2.2.3.5.5-.2.1,0-.1,0,0,0,1-.1,1.2-.1.4-.4.8-.7,1.1-.6.6-1.4,1.1-2.1,1.4-1.9,1-4,1.8-6,2.6-4.1,1.5-8.3,2.8-12.6,3.8-8.8,2.1-17.8,3.5-26.8,4.8-9.2,1.3-18.5,2.3-27.8,3-18.2,1.5-36.4,2.2-54.7,2.2-16.1,0-32.5-.6-48.2-4.5-7.6-1.9-15.1-4.5-22-8.2-3.4-1.8-6.9-3.8-9.8-6.3-1.2-1.1-2.6-2.3-3.4-3.8-.6-1.2-.7-2.8-.4-4.2.6-3.5,3.3-6,6.2-7.9,3.3-2.1,7-3.7,10.6-5.3,7.8-3.3,15.8-6,24-8,16.5-4.1,33.6-5.5,50.5-4.1,4.1.3,8.2.8,12.3,1.5.7.1,0-1.7-.2-1.9-.3-.6-1-2.4-1.8-2.5h0Z"/>
  <g class="st2">
    <path class="st1" d="M22.5,24.1v3.3h-4.5v13.6h-4.1v-13.6h-4.5v-3.3h13,0Z"/>
    <path class="st1" d="M28.1,40c-1.3-.7-2.4-1.8-3.1-3.1-.8-1.3-1.2-2.8-1.2-4.5s.4-3.1,1.2-4.4c.8-1.3,1.8-2.3,3.1-3.1,1.3-.7,2.8-1.1,4.4-1.1s3,.4,4.4,1.1,2.4,1.8,3.1,3.1,1.1,2.8,1.1,4.4-.4,3.1-1.2,4.5-1.8,2.3-3.1,3.1-2.8,1.1-4.3,1.1-3-.4-4.4-1.1h0ZM35.7,36c.8-.9,1.2-2.1,1.2-3.5s-.4-2.7-1.2-3.6c-.8-.9-1.9-1.3-3.2-1.3s-2.4.4-3.2,1.3-1.2,2.1-1.2,3.6.4,2.7,1.2,3.6c.8.9,1.9,1.3,3.2,1.3s2.4-.5,3.2-1.3h0Z"/>
    <path class="st1" d="M60.7,32.2c-.5.8-1.1,1.5-2.1,2-.9.5-2.1.7-3.5.7h-2.5v6h-4.1v-16.9h6.7c1.3,0,2.5.2,3.4.7.9.5,1.6,1.1,2.1,1.9s.7,1.8.7,2.8-.2,1.9-.7,2.7h0ZM56.6,31.1c.4-.4.6-.9.6-1.6s-.2-1.2-.6-1.6c-.4-.4-1-.5-1.8-.5h-2.2v4.2h2.2c.8,0,1.4-.2,1.8-.6Z"/>
    <path class="st1" d="M67.1,40c-1.3-.7-2.4-1.8-3.1-3.1-.8-1.3-1.2-2.8-1.2-4.5s.4-3.1,1.2-4.4c.8-1.3,1.8-2.3,3.1-3.1,1.3-.7,2.8-1.1,4.4-1.1s3,.4,4.4,1.1,2.4,1.8,3.1,3.1,1.1,2.8,1.1,4.4-.4,3.1-1.2,4.5c-.8,1.3-1.8,2.3-3.1,3.1s-2.8,1.1-4.3,1.1-3-.4-4.4-1.1h0ZM74.7,36c.8-.9,1.2-2.1,1.2-3.5s-.4-2.7-1.2-3.6c-.8-.9-1.9-1.3-3.2-1.3s-2.4.4-3.2,1.3-1.2,2.1-1.2,3.6.4,2.7,1.2,3.6c.8.9,1.9,1.3,3.2,1.3s2.4-.5,3.2-1.3h0Z"/>
    <path class="st1" d="M90.9,41l-3.5-6.4h-1v6.4h-4.1v-16.9h6.9c1.3,0,2.5.2,3.4.7s1.6,1.1,2.1,1.9.7,1.7.7,2.7-.3,2.1-.9,3c-.6.9-1.6,1.5-2.8,1.9l3.9,6.7h-4.6ZM86.4,31.7h2.5c.8,0,1.3-.2,1.7-.5.4-.4.6-.9.6-1.6s-.2-1.1-.6-1.5c-.4-.4-.9-.5-1.7-.5h-2.5v4.2h0Z"/>
    <path class="st1" d="M110.1,24.1v3.3h-4.5v13.6h-4.1v-13.6h-4.5v-3.3h13,0Z"/>
    <path class="st1" d="M123.1,24.1v3.3h-6.9v3.5h5.1v3.2h-5.1v6.8h-4.1v-16.9h11,0Z"/>
    <path class="st1" d="M128.9,40c-1.3-.7-2.4-1.8-3.1-3.1-.8-1.3-1.2-2.8-1.2-4.5s.4-3.1,1.2-4.4c.8-1.3,1.8-2.3,3.1-3.1,1.3-.7,2.8-1.1,4.4-1.1s3,.4,4.4,1.1c1.3.7,2.4,1.8,3.1,3.1s1.1,2.8,1.1,4.4-.4,3.1-1.1,4.5c-.8,1.3-1.8,2.3-3.1,3.1-1.3.7-2.8,1.1-4.3,1.1s-3-.4-4.4-1.1h0ZM136.5,36c.8-.9,1.2-2.1,1.2-3.5s-.4-2.7-1.2-3.6c-.8-.9-1.9-1.3-3.2-1.3s-2.4.4-3.2,1.3-1.2,2.1-1.2,3.6.4,2.7,1.2,3.6c.8.9,1.9,1.3,3.2,1.3s2.4-.5,3.2-1.3h0Z"/>
    <path class="st1" d="M148.2,37.8h5.4v3.2h-9.5v-16.9h4.1v13.7h0Z"/>
    <path class="st1" d="M159.7,24.1v16.8h-4.1v-16.9s4.1,0,4.1,0Z"/>
    <path class="st1" d="M166.3,40c-1.3-.7-2.4-1.8-3.1-3.1-.8-1.3-1.2-2.8-1.2-4.5s.4-3.1,1.2-4.4c.8-1.3,1.8-2.3,3.1-3.1,1.3-.7,2.8-1.1,4.4-1.1s3,.4,4.4,1.1c1.3.7,2.4,1.8,3.1,3.1s1.1,2.8,1.1,4.4-.4,3.1-1.1,4.5c-.8,1.3-1.8,2.3-3.1,3.1s-2.8,1.1-4.3,1.1-3-.4-4.4-1.1h0ZM173.9,36c.8-.9,1.2-2.1,1.2-3.5s-.4-2.7-1.2-3.6c-.8-.9-1.9-1.3-3.2-1.3s-2.4.4-3.2,1.3-1.2,2.1-1.2,3.6.4,2.7,1.2,3.6c.8.9,1.9,1.3,3.2,1.3s2.4-.5,3.2-1.3h0Z"/>
    <path class="st1" d="M196.9,30.8v3.4h-10.6v-3.4s10.6,0,10.6,0Z"/>
    <path class="st1" d="M200.6,27.3h5.2l4.9,5.3-4.9,5.3h-5.2l4.9-5.3s-4.9-5.3-4.9-5.3Z"/>
  </g>
  <g class="st2">
    <path class="st1" d="M27.2,24.1v3.3h-4.5v13.6h-4.1v-13.6h-4.5v-3.3h13,0Z"/>
    <path class="st1" d="M32.9,40c-1.3-.7-2.4-1.8-3.1-3.1-.8-1.3-1.2-2.8-1.2-4.5s.4-3.1,1.2-4.4c.8-1.3,1.8-2.3,3.1-3.1,1.3-.7,2.8-1.1,4.4-1.1s3,.4,4.4,1.1,2.4,1.8,3.1,3.1,1.1,2.8,1.1,4.4-.4,3.1-1.2,4.5-1.8,2.3-3.1,3.1-2.8,1.1-4.3,1.1-3-.4-4.4-1.1h0ZM40.5,36c.8-.9,1.2-2.1,1.2-3.5s-.4-2.7-1.2-3.6c-.8-.9-1.9-1.3-3.2-1.3s-2.4.4-3.2,1.3-1.2,2.1-1.2,3.6.4,2.7,1.2,3.6c.8.9,1.9,1.3,3.2,1.3s2.4-.5,3.2-1.3h0Z"/>
    <path class="st1" d="M63.7,38h-6.3l-1,3h-4.3l6.1-16.9h4.8l6.1,16.9h-4.3s-1-3-1-3ZM62.7,34.8l-2.1-6.2-2.1,6.2h4.2Z"/>
    <path class="st1" d="M83.5,33.8c.6.8.9,1.6.9,2.6,0,1.4-.5,2.5-1.5,3.3-1,.8-2.4,1.2-4.1,1.2h-7.8v-16.9h7.6c1.7,0,3.1.4,4,1.2,1,.8,1.4,1.9,1.4,3.2s-.3,1.8-.8,2.5c-.5.7-1.2,1.1-2.1,1.4,1,.2,1.8.7,2.3,1.5h0ZM75,30.9h2.7c.7,0,1.2-.1,1.6-.4.4-.3.5-.7.5-1.3s-.2-1-.5-1.3-.9-.5-1.6-.5h-2.7s0,3.5,0,3.5ZM79.6,37.2c.4-.3.6-.8.6-1.4s-.2-1.1-.6-1.4-.9-.5-1.6-.5h-3v3.7h3c.7,0,1.2-.2,1.6-.5h0Z"/>
    <path class="st1" d="M90.3,40c-1.3-.7-2.4-1.8-3.1-3.1-.8-1.3-1.2-2.8-1.2-4.5s.4-3.1,1.2-4.4c.8-1.3,1.8-2.3,3.1-3.1,1.3-.7,2.8-1.1,4.4-1.1s3,.4,4.4,1.1,2.4,1.8,3.1,3.1,1.1,2.8,1.1,4.4-.4,3.1-1.2,4.5c-.8,1.3-1.8,2.3-3.1,3.1s-2.8,1.1-4.3,1.1-3-.4-4.4-1.1h0ZM97.9,36c.8-.9,1.2-2.1,1.2-3.5s-.4-2.7-1.2-3.6c-.8-.9-1.9-1.3-3.2-1.3s-2.4.4-3.2,1.3-1.2,2.1-1.2,3.6.4,2.7,1.2,3.6c.8.9,1.9,1.3,3.2,1.3s2.4-.5,3.2-1.3h0Z"/>
    <path class="st1" d="M109.6,24.1v10.1c0,1,.2,1.8.7,2.3.5.5,1.2.8,2.2.8s1.7-.3,2.2-.8c.5-.5.8-1.3.8-2.3v-10.1h4.1v10.1c0,1.5-.3,2.8-1,3.8s-1.5,1.8-2.6,2.3-2.3.8-3.6.8-2.5-.3-3.6-.8c-1.1-.5-1.9-1.3-2.5-2.3-.6-1-.9-2.3-.9-3.8v-10.1h4.1Z"/>
    <path class="st1" d="M134.6,24.1v3.3h-4.5v13.6h-4.1v-13.6h-4.5v-3.3h13,0Z"/>
    <path class="st1" d="M160.9,24.1v16.8h-4.1v-10.1l-3.8,10.1h-3.3l-3.8-10.1v10.1h-4.1v-16.9h4.9l4.7,11.7,4.7-11.7h4.8,0Z"/>
    <path class="st1" d="M167.9,27.4v3.4h5.5v3.2h-5.5v3.7h6.2v3.3h-10.3v-16.9h10.3v3.3h-6.2Z"/>
    <path class="st1" d="M192.2,30.8v3.4h-10.6v-3.4s10.6,0,10.6,0Z"/>
    <path class="st1" d="M195.8,27.3h5.2l4.9,5.3-4.9,5.3h-5.2l4.9-5.3s-4.9-5.3-4.9-5.3Z"/>
  </g>
  <g class="st2">
    <path class="st1" d="M33.2,23.8l-4.4,16.9h-5l-2.7-11.1-2.8,11.1h-5l-4.3-16.9h4.4l2.4,12.3,3-12.3h4.5l2.9,12.3,2.5-12.3h4.4Z"/>
    <path class="st1" d="M45.8,37.7h-6.3l-1,3h-4.3l6.1-16.9h4.8l6.1,16.9h-4.3l-1-3ZM44.7,34.5l-2.1-6.2-2.1,6.2h4.2Z"/>
    <path class="st1" d="M65.1,23.8v3.3h-4.5v13.6h-4.1v-13.6h-4.5v-3.3h13,0Z"/>
    <path class="st1" d="M67.5,27.8c.7-1.3,1.7-2.3,3-3s2.8-1.1,4.4-1.1,3.7.5,5.1,1.6c1.4,1.1,2.4,2.5,2.9,4.3h-4.5c-.3-.7-.8-1.2-1.4-1.6s-1.3-.5-2.1-.5c-1.3,0-2.3.4-3.1,1.3s-1.2,2.1-1.2,3.5.4,2.7,1.2,3.5c.8.9,1.8,1.3,3.1,1.3s1.5-.2,2.1-.5c.6-.4,1.1-.9,1.4-1.6h4.5c-.5,1.8-1.4,3.3-2.9,4.3-1.4,1-3.1,1.6-5.1,1.6s-3.1-.4-4.4-1.1-2.3-1.7-3-3-1.1-2.8-1.1-4.4.4-3.1,1.1-4.4Z"/>
    <path class="st1" d="M100,23.8v16.9h-4.1v-6.9h-6.4v6.9h-4.1v-16.9h4.1v6.6h6.4v-6.6h4.1Z"/>
    <path class="st1" d="M123.9,23.8l-6,16.9h-5.1l-6-16.9h4.4l4.2,12.7,4.2-12.7h4.4Z"/>
    <path class="st1" d="M129.7,23.8v16.9h-4.1v-16.9h4.1Z"/>
    <path class="st1" d="M143.6,24.9c1.3.7,2.4,1.7,3.1,3,.7,1.3,1.1,2.7,1.1,4.4s-.4,3.1-1.1,4.4-1.8,2.3-3.1,3c-1.3.7-2.9,1.1-4.6,1.1h-6.3v-16.9h6.3c1.8,0,3.3.4,4.7,1.1ZM142.3,35.8c.9-.8,1.3-2,1.3-3.6s-.4-2.8-1.3-3.6-2.1-1.3-3.6-1.3h-1.9v9.8h1.9c1.6,0,2.8-.4,3.6-1.3Z"/>
    <path class="st1" d="M154.2,27.1v3.4h5.5v3.2h-5.5v3.7h6.2v3.3h-10.3v-16.9h10.3v3.3h-6.2Z"/>
    <path class="st1" d="M166.7,39.7c-1.3-.7-2.4-1.8-3.1-3.1-.8-1.3-1.2-2.8-1.2-4.5s.4-3.1,1.2-4.4c.8-1.3,1.8-2.3,3.1-3.1,1.3-.7,2.8-1.1,4.4-1.1s3,.4,4.4,1.1c1.3.7,2.4,1.8,3.1,3.1s1.1,2.8,1.1,4.4-.4,3.1-1.1,4.5c-.8,1.3-1.8,2.3-3.1,3.1-1.3.7-2.8,1.1-4.3,1.1s-3-.4-4.4-1.1h0ZM174.3,35.8c.8-.9,1.2-2.1,1.2-3.5s-.4-2.7-1.2-3.6c-.8-.9-1.9-1.3-3.2-1.3s-2.4.4-3.2,1.3-1.2,2.1-1.2,3.6.4,2.7,1.2,3.6c.8.9,1.9,1.3,3.2,1.3s2.4-.5,3.2-1.3h0Z"/>
    <path class="st1" d="M197.4,30.5v3.4h-10.6v-3.4h10.6Z"/>
    <path class="st1" d="M201,27h5.2l4.9,5.3-4.9,5.3h-5.2l4.9-5.3s-4.9-5.3-4.9-5.3Z"/>
  </g>
  <g class="st2">
    <path class="st1" d="M36.7,23.9v3.3h-4.5v13.6h-4.1v-13.6h-4.5v-3.3h13,0Z"/>
    <path class="st1" d="M42.4,39.8c-1.3-.7-2.4-1.8-3.1-3.1-.8-1.3-1.2-2.8-1.2-4.5s.4-3.1,1.2-4.4c.8-1.3,1.8-2.3,3.1-3.1,1.3-.7,2.8-1.1,4.4-1.1s3,.4,4.4,1.1,2.4,1.8,3.1,3.1,1.1,2.8,1.1,4.4-.4,3.1-1.2,4.5-1.8,2.3-3.1,3.1-2.8,1.1-4.3,1.1-3-.4-4.4-1.1h0ZM50,35.9c.8-.9,1.2-2.1,1.2-3.5s-.4-2.7-1.2-3.6c-.8-.9-1.9-1.3-3.2-1.3s-2.4.4-3.2,1.3-1.2,2.1-1.2,3.6.4,2.7,1.2,3.6c.8.9,1.9,1.3,3.2,1.3s2.4-.5,3.2-1.3h0Z"/>
    <path class="st1" d="M85.9,23.9l-4.4,16.9h-5l-2.7-11.1-2.8,11.1h-5l-4.3-16.9h4.4l2.4,12.3,3-12.3h4.5l2.9,12.3,2.4-12.3h4.4Z"/>
    <path class="st1" d="M92.1,27.2v3.4h5.5v3.2h-5.5v3.7h6.2v3.3h-10.3v-16.9h10.3v3.3h-6.2Z"/>
    <path class="st1" d="M113.5,33.6c.6.8.9,1.6.9,2.6,0,1.4-.5,2.5-1.5,3.3-1,.8-2.4,1.2-4.1,1.2h-7.8v-16.9h7.6c1.7,0,3.1.4,4,1.2,1,.8,1.4,1.9,1.4,3.2s-.3,1.8-.8,2.5c-.5.7-1.2,1.1-2.1,1.4,1,.2,1.8.7,2.3,1.5h0ZM105.1,30.8h2.7c.7,0,1.2-.1,1.6-.4.4-.3.5-.7.5-1.3s-.2-1-.5-1.3-.9-.5-1.6-.5h-2.7s0,3.5,0,3.5ZM109.7,37c.4-.3.6-.8.6-1.4s-.2-1.1-.6-1.4-.9-.5-1.6-.5h-3v3.7h3c.7,0,1.2-.2,1.6-.5h0Z"/>
    <path class="st1" d="M119.6,40.4c-1-.4-1.8-1-2.3-1.8-.6-.8-.9-1.7-.9-2.8h4.4c0,.6.3,1.1.7,1.4s.8.5,1.4.5,1.1-.1,1.4-.4c.3-.3.5-.7.5-1.2s-.1-.8-.4-1-.6-.5-1-.7c-.4-.2-1-.4-1.7-.6-1.1-.3-2-.7-2.7-1-.7-.3-1.3-.8-1.8-1.5s-.7-1.5-.7-2.6c0-1.6.6-2.8,1.7-3.7,1.1-.9,2.6-1.3,4.4-1.3s3.3.4,4.5,1.3c1.1.9,1.7,2.1,1.8,3.7h-4.4c0-.5-.2-1-.6-1.3-.4-.3-.8-.5-1.4-.5s-.9.1-1.2.4c-.3.3-.5.6-.5,1.1s.3,1,.8,1.3c.5.3,1.3.6,2.4,1,1.1.4,2,.7,2.7,1.1s1.3.8,1.8,1.5c.5.6.7,1.5.7,2.5s-.2,1.8-.7,2.6c-.5.8-1.2,1.4-2.1,1.9s-2,.7-3.3.7-2.3-.2-3.3-.6h0Z"/>
    <path class="st1" d="M135.7,23.9v16.9h-4.1v-16.9h4.1Z"/>
    <path class="st1" d="M150.8,23.9v3.3h-4.5v13.6h-4.1v-13.6h-4.5v-3.3h13,0Z"/>
    <path class="st1" d="M156.9,27.2v3.4h5.5v3.2h-5.5v3.7h6.2v3.3h-10.3v-16.9h10.3v3.3h-6.2Z"/>
    <path class="st1" d="M181.2,30.7v3.4h-10.6v-3.4h10.6Z"/>
    <path class="st1" d="M184.8,27.1h5.2l4.9,5.3-4.9,5.3h-5.2l4.9-5.3s-4.9-5.3-4.9-5.3Z"/>
  </g>
  <g class="st2">
    <path class="st1" d="M49.2,23.9v3.3h-4.5v13.6h-4.1v-13.6h-4.5v-3.3h13,0Z"/>
    <path class="st1" d="M54.8,39.8c-1.3-.7-2.4-1.8-3.1-3.1-.8-1.3-1.2-2.8-1.2-4.5s.4-3.1,1.2-4.4c.8-1.3,1.8-2.3,3.1-3.1,1.3-.7,2.8-1.1,4.4-1.1s3,.4,4.4,1.1,2.4,1.8,3.1,3.1,1.1,2.8,1.1,4.4-.4,3.1-1.2,4.5c-.8,1.3-1.8,2.3-3.1,3.1s-2.8,1.1-4.3,1.1-3-.4-4.4-1.1h0ZM62.4,35.9c.8-.9,1.2-2.1,1.2-3.5s-.4-2.7-1.2-3.6c-.8-.9-1.9-1.3-3.2-1.3s-2.4.4-3.2,1.3-1.2,2.1-1.2,3.6.4,2.7,1.2,3.6c.8.9,1.9,1.3,3.2,1.3s2.4-.5,3.2-1.3h0Z"/>
    <path class="st1" d="M86.2,23.9v3.3h-6.9v3.5h5.1v3.2h-5.1v6.8h-4.1v-16.9h11,0Z"/>
    <path class="st1" d="M92.4,23.9v16.9h-4.1v-16.9h4.1Z"/>
    <path class="st1" d="M106.6,29.3c-.3-.6-.7-1-1.3-1.3-.6-.3-1.2-.4-2-.4-1.3,0-2.4.4-3.2,1.3-.8.9-1.2,2-1.2,3.5s.4,2.8,1.3,3.6,2,1.3,3.5,1.3,1.9-.3,2.6-.8c.7-.5,1.2-1.2,1.5-2.2h-5.2v-3h8.9v3.8c-.3,1-.8,2-1.6,2.9s-1.7,1.6-2.8,2.1-2.4.8-3.8.8-3.2-.4-4.4-1.1c-1.3-.7-2.3-1.7-3.1-3s-1.1-2.8-1.1-4.4.4-3.1,1.1-4.5,1.7-2.3,3-3,2.8-1.1,4.4-1.1,3.7.5,5.1,1.5c1.4,1,2.3,2.3,2.8,4.1h-4.6Z"/>
    <path class="st1" d="M132.8,23.9v16.9h-4.1v-10.1l-3.8,10.1h-3.3l-3.8-10.1v10.1h-4.1v-16.9h4.8l4.7,11.7,4.7-11.7h4.8,0Z"/>
    <path class="st1" d="M146.2,37.8h-6.3l-1,3h-4.3l6.1-16.9h4.8l6.1,16.9h-4.3l-1-3h0ZM145.1,34.6l-2.1-6.2-2.1,6.2h4.1Z"/>
    <path class="st1" d="M168.8,30.7v3.4h-10.6v-3.4h10.6Z"/>
    <path class="st1" d="M172.4,27.1h5.2l4.9,5.3-4.9,5.3h-5.2l4.9-5.3s-4.9-5.3-4.9-5.3Z"/>
  </g>
  <g class="st2">
    <path class="st1" d="M39.2,31.9c-.5.8-1.1,1.5-2.1,2-.9.5-2.1.7-3.5.7h-1.3c-.7,0-1.3.6-1.3,1.3v3.5c0,.7-.6,1.3-1.3,1.3h-1.6c-.7,0-1.3-.6-1.3-1.3v-14.3c0-.7.6-1.3,1.3-1.3h5.4c1.3,0,2.5.2,3.4.7.9.5,1.6,1.1,2.1,1.9s.7,1.8.7,2.8-.2,1.9-.7,2.7h0ZM35.1,30.8c.4-.4.6-.9.6-1.6s-.2-1.2-.6-1.6c-.4-.4-1-.5-1.8-.5h-1c-.7,0-1.3.6-1.3,1.3v1.7c0,.7.6,1.3,1.3,1.3h1c.8,0,1.4-.2,1.8-.6Z"/>
    <path class="st1" d="M47.4,37.5h2.9c.7,0,1.3.6,1.3,1.3v.7c0,.7-.6,1.3-1.3,1.3h-7c-.7,0-1.3-.6-1.3-1.3v-14.3c0-.7.6-1.3,1.3-1.3h1.6c.7,0,1.3.6,1.3,1.3v11.2c0,.7.6,1.3,1.3,1.3Z"/>
    <path class="st1" d="M63.1,37.7h-4.5c-.5,0-1,.3-1.2.9l-.4,1.3c-.2.5-.6.9-1.2.9h-1.6c-.9,0-1.5-.9-1.2-1.7l5.2-14.3c.2-.5.7-.8,1.2-.8h3c.5,0,1,.3,1.2.8l5.2,14.3c.3.8-.3,1.7-1.2,1.7h-1.7c-.5,0-1-.3-1.2-.9l-.4-1.3c-.2-.5-.6-.9-1.2-.9ZM62.3,32.9l-.3-1c-.4-1.1-2-1.1-2.4,0l-.3,1c-.3.8.3,1.6,1.2,1.6h.7c.9,0,1.5-.8,1.2-1.7Z"/>
    <path class="st1" d="M85.6,23.8l-5.7,11c0,.2-.1.4-.1.6v4c0,.7-.6,1.3-1.3,1.3h-1.6c-.7,0-1.3-.6-1.3-1.3v-4c0-.2,0-.4-.1-.6l-4.7-9.2c-.4-.8.2-1.8,1.1-1.8h1.8c.5,0,.9.3,1.1.7l1.8,3.9c.4,1,1.8,1,2.3,0l1.8-3.9c.2-.4.6-.7,1.1-.7h3.8,0Z"/>
    <path class="st1" d="M103.5,29.2c-.3-.6-.7-1-1.3-1.3-.6-.3-1.2-.4-2-.4-1.3,0-2.4.4-3.2,1.3-.8.9-1.2,2-1.2,3.5s.4,2.8,1.3,3.6,2,1.3,3.5,1.3,1.9-.3,2.6-.8c0,0,0,0,0,0,.9-.7.4-2.2-.8-2.2h-1.7c-.7,0-1.3-.6-1.3-1.3v-.5c0-.7.6-1.3,1.3-1.3h6.4c.7,0,1.3.6,1.3,1.3v2.4c0,.1,0,.3,0,.4-.3.9-.8,1.8-1.5,2.7s-1.7,1.6-2.8,2.1-2.4.8-3.8.8-3.2-.4-4.4-1.1c-1.3-.7-2.3-1.7-3.1-3s-1.1-2.8-1.1-4.4.4-3.1,1.1-4.5,1.7-2.3,3-3,2.8-1.1,4.4-1.1,3.7.5,5.1,1.5c.8.6,1.5,1.3,2,2.2s-.2,1.8-1.1,1.8h-2.7Z"/>
    <path class="st1" d="M121.1,37.7h-5.4c-.5,0-1,.3-1.2.9l-.4,1.3c-.2.5-.6.9-1.2.9h-1.6c-.9,0-1.5-.9-1.2-1.7l5.2-14.3c.2-.5.7-.8,1.2-.8h3c.5,0,1,.3,1.2.8l5.2,14.3c.3.8-.3,1.7-1.2,1.7h-1.7c-.5,0-1-.3-1.2-.9l-.7-2.1h0ZM119.5,32.9l-.3-1c-.4-1.1-2-1.1-2.4,0l-.3,1c-.3.8.3,1.6,1.2,1.6h.7c.9,0,1.5-.8,1.2-1.7Z"/>
    <path class="st1" d="M147.4,23.8v15.6c0,.7-.6,1.3-1.3,1.3h-1.6c-.7,0-1.3-.6-1.3-1.3v-1.9c0-1.4-1.9-1.7-2.4-.4l-1,2.8c-.2.5-.7.8-1.2.8h-1.6c-.5,0-1-.3-1.2-.8l-1.1-2.8c-.5-1.3-2.4-1-2.4.4v2c0,.7-.6,1.3-1.3,1.3h-1.6c-.7,0-1.3-.6-1.3-1.3v-14.3c0-.7.6-1.3,1.3-1.3h2.8c.5,0,1,.3,1.2.8l3.2,8c.4,1,1.9,1,2.3,0l3.2-8c.2-.5.7-.8,1.2-.8h4,0Z"/>
    <path class="st1" d="M154.4,27.1v2.2c0,.7.6,1.3,1.3,1.3h3c.7,0,1.3.6,1.3,1.3v.7c0,.7-.6,1.3-1.3,1.3h-3c-.7,0-1.3.6-1.3,1.3v1.2c0,.7.6,1.3,1.3,1.3h3.7c.7,0,1.3.6,1.3,1.3v.8c0,.7-.6,1.3-1.3,1.3h-7.8c-.7,0-1.3-.6-1.3-1.3v-14.3c0-.7.6-1.3,1.3-1.3h7.8c.7,0,1.3.6,1.3,1.3v.8c0,.7-.6,1.3-1.3,1.3h-5Z"/>
    <path class="st1" d="M178.7,31.8v.9c0,.7-.6,1.3-1.3,1.3h-8.1c-.7,0-1.3-.6-1.3-1.3v-.9c0-.7.6-1.3,1.3-1.3h8.1c.7,0,1.3.6,1.3,1.3Z"/>
    <path class="st1" d="M185.2,27h1.7c.4,0,.7.1.9.4l3.7,4c.4.5.4,1.2,0,1.7l-3.7,4c-.2.3-.6.4-.9.4h-1.7c-1.1,0-1.7-1.3-.9-2.1l2.2-2.3c.4-.5.4-1.2,0-1.7l-2.2-2.3c-.7-.8-.2-2.1.9-2.1Z"/>
  </g>
  <g class="st2">
    <path class="st1" d="M47.9,40.4c-1-.4-1.8-1-2.3-1.8-.6-.8-.9-1.7-.9-2.8h4.4c0,.6.3,1.1.6,1.4s.8.5,1.4.5,1.1-.1,1.4-.4c.4-.3.5-.7.5-1.2s-.1-.8-.4-1c-.3-.3-.6-.5-1-.7-.4-.2-1-.4-1.7-.6-1.1-.3-2-.7-2.7-1-.7-.3-1.3-.8-1.8-1.5-.5-.7-.7-1.5-.7-2.6,0-1.6.6-2.8,1.7-3.7,1.1-.9,2.6-1.3,4.4-1.3s3.4.4,4.5,1.3c1.1.9,1.7,2.1,1.8,3.7h-4.4c0-.5-.2-1-.6-1.3-.4-.3-.8-.5-1.4-.5s-.9.1-1.2.4c-.3.3-.5.6-.5,1.1s.3,1,.8,1.3c.5.3,1.3.6,2.4,1,1.1.4,2,.7,2.7,1.1.7.3,1.3.8,1.8,1.5.5.6.7,1.5.7,2.5s-.2,1.8-.7,2.6c-.5.8-1.2,1.4-2.1,1.9-.9.5-2,.7-3.3.7s-2.3-.2-3.3-.6Z"/>
    <path class="st1" d="M63.5,39.9c-1.3-.7-2.4-1.8-3.1-3.1-.8-1.3-1.2-2.8-1.2-4.5s.4-3.1,1.2-4.4c.8-1.3,1.8-2.3,3.1-3.1,1.3-.7,2.8-1.1,4.4-1.1s3,.4,4.4,1.1,2.4,1.8,3.1,3.1c.8,1.3,1.1,2.8,1.1,4.4s-.4,3.1-1.2,4.5c-.8,1.3-1.8,2.3-3.1,3.1s-2.8,1.1-4.3,1.1-3-.4-4.4-1.1ZM71,35.9c.8-.9,1.2-2.1,1.2-3.6s-.4-2.7-1.2-3.6c-.8-.9-1.9-1.3-3.2-1.3s-2.4.4-3.3,1.3c-.8.9-1.2,2.1-1.2,3.6s.4,2.7,1.2,3.6c.8.9,1.9,1.3,3.3,1.3s2.4-.4,3.2-1.3Z"/>
    <path class="st1" d="M89.7,24v3.3h-6.9v3.6h5.1v3.2h-5.1v6.8h-4.1v-16.8h11Z"/>
    <path class="st1" d="M104,24v3.3h-4.5v13.6h-4.1v-13.6h-4.5v-3.3h13Z"/>
    <path class="st1" d="M129.2,24l-4.4,16.8h-5l-2.7-11.1-2.8,11.1h-5l-4.3-16.8h4.4l2.4,12.3,3-12.3h4.5l2.9,12.3,2.4-12.3h4.4Z"/>
    <path class="st1" d="M141.8,37.9h-6.3l-1,3h-4.3l6.1-16.8h4.8l6.1,16.8h-4.3l-1-3ZM140.7,34.7l-2.1-6.2-2.1,6.2h4.2Z"/>
    <path class="st1" d="M157.6,40.8l-3.5-6.4h-1v6.4h-4.1v-16.8h6.9c1.3,0,2.5.2,3.4.7.9.5,1.6,1.1,2.1,1.9.5.8.7,1.7.7,2.7s-.3,2.1-.9,3c-.6.9-1.6,1.5-2.8,1.9l3.9,6.7h-4.6ZM153.1,31.6h2.5c.8,0,1.3-.2,1.7-.6s.6-.9.6-1.6-.2-1.1-.6-1.5c-.4-.4-.9-.6-1.7-.6h-2.5v4.2Z"/>
    <path class="st1" d="M168.7,27.3v3.4h5.5v3.2h-5.5v3.7h6.2v3.3h-10.3v-16.8h10.3v3.3h-6.2Z"/>
  </g>
  <g>
    <path class="st1" d="M62.6,28.1c.7-1.3,1.7-2.3,3-3,1.3-.7,2.7-1.1,4.4-1.1s3.7.5,5.1,1.6c1.4,1.1,2.4,2.5,2.9,4.3h-4.5c-.3-.7-.8-1.2-1.4-1.6-.6-.4-1.3-.6-2.1-.6-1.3,0-2.3.4-3.1,1.3-.8.9-1.2,2.1-1.2,3.5s.4,2.6,1.2,3.5c.8.9,1.8,1.3,3.1,1.3s1.5-.2,2.1-.6c.6-.4,1.1-.9,1.4-1.6h4.5c-.5,1.8-1.4,3.3-2.9,4.3-1.4,1-3.1,1.6-5.1,1.6s-3.1-.4-4.4-1.1c-1.3-.7-2.3-1.7-3-3-.7-1.3-1.1-2.8-1.1-4.4s.4-3.1,1.1-4.5Z"/>
    <path class="st1" d="M84.1,40.1c-1.3-.7-2.4-1.8-3.1-3.1-.8-1.3-1.2-2.8-1.2-4.5s.4-3.1,1.2-4.4c.8-1.3,1.8-2.3,3.1-3.1,1.3-.7,2.8-1.1,4.4-1.1s3,.4,4.4,1.1,2.4,1.8,3.1,3.1c.8,1.3,1.1,2.8,1.1,4.4s-.4,3.1-1.2,4.5c-.8,1.3-1.8,2.3-3.1,3.1-1.3.7-2.8,1.1-4.3,1.1s-3-.4-4.4-1.1ZM91.7,36.1c.8-.9,1.2-2.1,1.2-3.6s-.4-2.7-1.2-3.6c-.8-.9-1.9-1.3-3.2-1.3s-2.4.4-3.3,1.3c-.8.9-1.2,2.1-1.2,3.6s.4,2.7,1.2,3.6c.8.9,1.9,1.3,3.3,1.3s2.4-.4,3.2-1.3Z"/>
    <path class="st1" d="M110.3,25.2c1.3.7,2.4,1.7,3.1,3s1.1,2.7,1.1,4.4-.4,3.1-1.1,4.4-1.8,2.3-3.1,3c-1.3.7-2.9,1.1-4.6,1.1h-6.3v-16.8h6.3c1.8,0,3.3.4,4.7,1.1ZM109,36.2c.9-.8,1.3-2,1.3-3.6s-.4-2.8-1.3-3.6-2.1-1.3-3.6-1.3h-1.9v9.8h1.9c1.6,0,2.8-.4,3.6-1.3Z"/>
    <path class="st1" d="M120.9,24.2v16.8h-4.1v-16.8h4.1Z"/>
    <path class="st1" d="M138.9,41h-4.1l-6.9-10.4v10.4h-4.1v-16.8h4.1l6.9,10.4v-10.4h4.1v16.8Z"/>
    <path class="st1" d="M153.1,29.5c-.3-.6-.7-1-1.3-1.3-.6-.3-1.2-.4-2-.4-1.3,0-2.4.4-3.2,1.3-.8.9-1.2,2-1.2,3.5s.4,2.8,1.3,3.6,2,1.3,3.5,1.3,1.9-.3,2.6-.8c.7-.5,1.2-1.2,1.5-2.2h-5.2v-3h8.9v3.8c-.3,1-.8,2-1.5,2.9-.7.9-1.7,1.6-2.8,2.1s-2.4.8-3.8.8-3.1-.4-4.5-1.1c-1.3-.7-2.3-1.7-3-3-.7-1.3-1.1-2.8-1.1-4.4s.4-3.1,1.1-4.5c.7-1.3,1.7-2.3,3-3,1.3-.7,2.8-1.1,4.4-1.1s3.7.5,5.1,1.5c1.4,1,2.3,2.3,2.7,4.1h-4.5Z"/>
  </g>
</svg>