<?xml version="1.0" encoding="UTF-8"?>
<svg id="Layer_2" xmlns="http://www.w3.org/2000/svg" version="1.1" viewBox="0 0 1100 25">
  <!-- Generator: Adobe Illustrator 29.1.0, SVG Export Plug-In . SVG Version: 2.1.0 Build 142)  -->
  <defs>
    <style>
      .st0 {
        fill: #2727ff;
      }
    </style>
  </defs>
  <path class="st0" d="M7.94,21.72C149.32,12.89,290.93,7.85,432.59,6.65c141.69-1.2,283.41,1.42,424.95,7.87,39.39,1.79,78.74,4.22,118.12,6.12,39.15,1.9,78.46,2.47,117.39-2.82,2.19-.3.41-3.52-1.48-3.27-35.44,4.81-71.27,4.68-106.93,3.16-35.41-1.51-70.78-3.84-106.18-5.55-70.4-3.4-140.85-5.86-211.31-7.36-140.94-3.02-281.96-2.25-422.86,2.31C165.25,9.67,86.24,13.43,7.31,18.36c-2.36.15-1.35,3.48.63,3.36h0Z"/>
</svg>