<?xml version="1.0" encoding="UTF-8"?>
<svg id="Layer_2" xmlns="http://www.w3.org/2000/svg" version="1.1" viewBox="0 0 813 637">
  <!-- Generator: Adobe Illustrator 29.1.0, SVG Export Plug-In . SVG Version: 2.1.0 Build 142)  -->
  <defs>
    <style>
      .st0 {
        fill: #2727ff;
      }

      .st1 {
        fill: #efefef;
      }

      .st2 {
        display: none;
      }
    </style>
  </defs>
  <g>
    <path class="st1" d="M168.1,165.4c-5.9,10.5-14.8,18.9-26.7,25.2s-26.4,9.4-43.7,9.4h-29.1v71.4H9.8V59.9h87.9c17,0,31.5,3,43.3,9s20.9,14.3,26.9,24.9,9,22.8,9,36.6-2.9,24.4-8.9,34.9h0ZM116.9,130.4c0-15.4-8.3-23.1-24.9-23.1h-23.4v45.9h23.4c16.6,0,24.9-7.6,24.9-22.8Z"/>
    <path class="st1" d="M247.4,259.6c-16.6-9.3-29.8-22.2-39.4-38.7s-14.6-35.2-14.6-55.9,4.9-39.4,14.6-55.9,22.9-29.3,39.4-38.6c16.6-9.2,34.8-13.8,54.6-13.8s38.2,4.6,54.8,13.8c16.5,9.2,29.5,22.1,39.1,38.6s14.4,35.2,14.4,55.9-4.8,39.4-14.4,55.9-22.7,29.4-39.3,38.7c-16.6,9.3-34.8,14-54.6,14s-38-4.6-54.6-14ZM337.6,204.2c8.7-9.8,13-22.9,13-39.3s-4.4-30.1-13-39.8c-8.7-9.7-20.5-14.6-35.5-14.6s-27.1,4.8-35.7,14.6c-8.6,9.7-12.9,22.9-12.9,39.8s4.3,29.8,12.9,39.4,20.5,14.6,35.7,14.6,26.9-4.9,35.5-14.7Z"/>
    <path class="st1" d="M543.8,271.4l-42-78h-6.3v78h-58.8V59.9h92.7c17,0,31.4,3,43.2,8.8,11.8,5.9,20.7,14,26.7,24.3s9,21.8,9,34.7-4,27-11.8,38c-7.9,10.9-19.5,18.6-34.7,23.2l47.7,82.5h-65.7ZM495.5,153.2h29.1c8,0,14-1.9,18-5.7s6-9.3,6-16.5-2-12.2-6.2-16.1c-4.1-3.9-10-5.8-17.8-5.8h-29.1v44.1h0Z"/>
    <path class="st1" d="M794.3,59.9v46.8h-56.4v164.7h-58.8V106.7h-55.8v-46.8s171,0,171,0Z"/>
  </g>
  <g class="st2">
    <path class="st1" d="M255,531.6c-.5-1-1.3-1.7-2.3-2.2-1-.5-2.2-.8-3.5-.8-2.3,0-4.2.8-5.6,2.3-1.4,1.5-2.1,3.6-2.1,6.1s.7,4.8,2.2,6.4c1.5,1.5,3.5,2.3,6.1,2.3s3.3-.5,4.5-1.3c1.2-.9,2.1-2.2,2.7-3.9h-9.1v-5.3h15.6v6.7c-.5,1.8-1.4,3.5-2.7,5s-2.9,2.8-4.9,3.7-4.2,1.4-6.6,1.4-5.5-.6-7.8-1.9c-2.3-1.3-4.1-3-5.3-5.3s-1.9-4.9-1.9-7.8.6-5.5,1.9-7.8c1.3-2.3,3-4.1,5.3-5.3s4.9-1.9,7.8-1.9,6.5.8,8.9,2.6c2.4,1.7,4,4.1,4.8,7.1h-7.9s0,0,0,0Z"/>
    <path class="st1" d="M282.5,551.7l-6.1-11.1h-1.7v11.1h-7.2v-29.5h12c2.3,0,4.3.4,5.9,1.2s2.9,1.9,3.7,3.3c.8,1.4,1.2,3,1.2,4.7s-.5,3.7-1.7,5.2c-1.1,1.5-2.7,2.6-4.9,3.3l6.8,11.7h-8.1,0ZM274.6,535.5h4.5c1.3,0,2.3-.3,3-1,.7-.6,1-1.5,1-2.7s-.3-2-1-2.7c-.7-.6-1.6-1-3-1h-4.5v7.3h0Z"/>
    <path class="st1" d="M313.1,546.5h-11l-1.8,5.2h-7.5l10.7-29.5h8.3l10.7,29.5h-7.6l-1.8-5.2h0ZM311.3,541l-3.6-10.8-3.6,10.8h7.3,0Z"/>
    <path class="st1" d="M347,536.4c-.8,1.4-2,2.5-3.6,3.4s-3.6,1.3-6,1.3h-4.5v10.6h-7.2v-29.5h11.6c2.4,0,4.3.4,6,1.2s2.8,1.9,3.6,3.4,1.2,3.1,1.2,4.9-.4,3.3-1.2,4.7h0ZM339.9,534.5c.7-.6,1-1.5,1-2.7s-.3-2.1-1-2.7c-.7-.6-1.7-1-3.1-1h-3.9v7.4h3.9c1.4,0,2.4-.3,3.1-1h0Z"/>
    <path class="st1" d="M377.5,522.2v29.5h-7.2v-12.1h-11.2v12.1h-7.2v-29.5h7.2v11.5h11.2v-11.5h7.2Z"/>
    <path class="st1" d="M389.8,522.2v29.5h-7.2v-29.5h7.2Z"/>
    <path class="st1" d="M395.7,529.2c1.3-2.3,3-4.1,5.3-5.3s4.8-1.9,7.7-1.9,6.5.9,9,2.8c2.5,1.8,4.2,4.4,5,7.6h-7.9c-.6-1.2-1.4-2.2-2.5-2.8s-2.3-1-3.7-1c-2.2,0-4,.8-5.4,2.3-1.4,1.5-2.1,3.6-2.1,6.2s.7,4.6,2.1,6.2,3.2,2.3,5.4,2.3,2.6-.3,3.7-1c1.1-.6,1.9-1.6,2.5-2.8h7.9c-.8,3.2-2.5,5.7-5,7.5-2.5,1.8-5.5,2.8-9,2.8s-5.4-.6-7.7-1.9c-2.2-1.3-4-3-5.3-5.3-1.3-2.3-1.9-4.9-1.9-7.8s.6-5.5,1.9-7.8h0Z"/>
    <path class="st1" d="M431.9,551c-1.7-.7-3.1-1.7-4.1-3.1s-1.6-3-1.6-5h7.6c.1,1.1.5,1.9,1.1,2.5s1.5.9,2.5.9,1.9-.2,2.5-.7.9-1.2.9-2-.2-1.3-.7-1.8-1.1-.9-1.8-1.2c-.7-.3-1.7-.7-3-1-1.9-.6-3.5-1.2-4.7-1.8-1.2-.6-2.2-1.5-3.1-2.6-.9-1.2-1.3-2.7-1.3-4.5,0-2.7,1-4.9,3-6.5,2-1.5,4.6-2.3,7.8-2.3s5.9.8,7.9,2.3c2,1.5,3,3.7,3.2,6.5h-7.8c0-1-.4-1.7-1-2.2s-1.5-.8-2.5-.8-1.6.2-2.1.7-.8,1.1-.8,2,.5,1.7,1.3,2.2c.9.5,2.3,1.1,4.2,1.7,1.9.6,3.5,1.3,4.6,1.8,1.2.6,2.2,1.4,3.1,2.6s1.3,2.6,1.3,4.3-.4,3.2-1.3,4.6-2.1,2.5-3.7,3.3c-1.6.8-3.5,1.2-5.8,1.2s-4.1-.3-5.8-1h0,0Z"/>
    <path class="st1" d="M484.3,551.7l-2.7-2.7c-2.7,2.1-6,3.1-9.7,3.1s-4.2-.4-5.9-1.1-3-1.8-3.9-3.2c-.9-1.4-1.4-3-1.4-4.8s.5-3.5,1.5-5,2.5-2.7,4.5-3.7c-.7-.9-1.2-1.8-1.5-2.6-.3-.8-.5-1.7-.5-2.7,0-1.4.4-2.7,1.1-3.8s1.8-2,3.2-2.7c1.4-.7,3-1,4.9-1s3.6.3,4.9,1,2.4,1.6,3,2.8,1,2.5.9,3.9h-6.8c0-.8-.2-1.3-.6-1.7-.4-.4-.9-.6-1.6-.6s-1.2.2-1.7.6-.7.9-.7,1.5.2,1.2.6,1.8c.4.6,1,1.4,1.8,2.2l7.2,7c0-.1.1-.3.2-.5.1-.2.2-.4.3-.7l1.5-2.7h7.2l-2,3.7c-.8,1.7-1.6,3.2-2.6,4.7l7.1,7h-8.4ZM477.2,544.8l-6.5-6.3c-2,1-3,2.4-3,4.2s.4,2,1.2,2.7c.8.7,1.9,1.1,3.3,1.1s3.5-.5,5-1.6h0Z"/>
    <path class="st1" d="M511.3,522.2v17.6c0,1.8.4,3.1,1.3,4.1s2.1,1.4,3.8,1.4,3-.5,3.9-1.4c.9-1,1.3-2.3,1.3-4.1v-17.6h7.2v17.6c0,2.6-.6,4.9-1.7,6.7s-2.6,3.2-4.5,4.1c-1.9.9-4,1.4-6.3,1.4s-4.4-.5-6.2-1.4c-1.8-.9-3.3-2.3-4.4-4.1-1.1-1.8-1.6-4.1-1.6-6.7v-17.6h7.2Z"/>
    <path class="st1" d="M541,522.2v29.5h-7.2v-29.5h7.2Z"/>
    <path class="st1" d="M562.2,511.8l-11.3,47.7h-6.9l11.3-47.8h6.9Z"/>
    <path class="st1" d="M572.3,522.2v17.6c0,1.8.4,3.1,1.3,4.1s2.1,1.4,3.8,1.4,3-.5,3.9-1.4,1.3-2.3,1.3-4.1v-17.6h7.2v17.6c0,2.6-.6,4.9-1.7,6.7s-2.6,3.2-4.5,4.1c-1.9.9-4,1.4-6.3,1.4s-4.4-.5-6.2-1.4c-1.8-.9-3.3-2.3-4.3-4.1-1.1-1.8-1.6-4.1-1.6-6.7v-17.6h7.2,0Z"/>
    <path class="st1" d="M612.9,551.7l-6-9-5.3,9h-8.2l9.5-15-9.7-14.5h8.4l5.9,8.9,5.2-8.9h8.2l-9.4,14.9,9.7,14.6h-8.4,0Z"/>
    <path class="st1" d="M653,524.1c2.3,1.2,4.1,3,5.4,5.2,1.3,2.2,1.9,4.8,1.9,7.7s-.6,5.5-1.9,7.7c-1.3,2.2-3.1,4-5.4,5.2-2.3,1.2-5,1.8-8.1,1.8h-11v-29.5h11c3.1,0,5.8.6,8.2,1.8h0s0,0,0,0ZM650.7,543.3c1.5-1.5,2.3-3.6,2.3-6.3s-.8-4.8-2.3-6.3-3.6-2.3-6.3-2.3h-3.4v17.1h3.4c2.7,0,4.8-.7,6.3-2.2Z"/>
    <path class="st1" d="M671.5,528v6h9.6v5.5h-9.6v6.5h10.9v5.8h-18.1v-29.5h18.1v5.8h-10.9Z"/>
    <path class="st1" d="M691.9,551c-1.7-.7-3.1-1.7-4.1-3.1s-1.6-3-1.6-5h7.6c.1,1.1.5,1.9,1.1,2.5s1.5.9,2.5.9,1.9-.2,2.5-.7.9-1.2.9-2-.2-1.3-.7-1.8c-.5-.5-1.1-.9-1.8-1.2-.7-.3-1.7-.7-3-1-1.9-.6-3.5-1.2-4.7-1.8s-2.2-1.5-3.1-2.6c-.9-1.2-1.3-2.7-1.3-4.5,0-2.7,1-4.9,3-6.5,2-1.5,4.6-2.3,7.8-2.3s5.9.8,7.8,2.3c2,1.5,3,3.7,3.2,6.5h-7.8c0-1-.4-1.7-1-2.2s-1.5-.8-2.5-.8-1.6.2-2.1.7c-.5.5-.8,1.1-.8,2s.5,1.7,1.3,2.2c.9.5,2.3,1.1,4.2,1.7,1.9.6,3.5,1.3,4.6,1.8s2.2,1.4,3.1,2.6,1.3,2.6,1.3,4.3-.4,3.2-1.3,4.6c-.8,1.4-2.1,2.5-3.7,3.3s-3.5,1.2-5.8,1.2-4.1-.3-5.8-1h0,0Z"/>
    <path class="st1" d="M720,522.2v29.5h-7.2v-29.5h7.2Z"/>
    <path class="st1" d="M744.8,531.6c-.5-1-1.3-1.7-2.3-2.2-1-.5-2.2-.8-3.5-.8-2.3,0-4.2.8-5.6,2.3-1.4,1.5-2.1,3.6-2.1,6.1s.7,4.8,2.2,6.4c1.5,1.5,3.5,2.3,6.1,2.3s3.2-.5,4.5-1.3c1.2-.9,2.1-2.2,2.7-3.9h-9.1v-5.3h15.6v6.7c-.5,1.8-1.4,3.5-2.7,5s-2.9,2.8-4.8,3.7-4.2,1.4-6.6,1.4-5.5-.6-7.8-1.9c-2.3-1.3-4.1-3-5.3-5.3s-1.9-4.9-1.9-7.8.6-5.5,1.9-7.8c1.3-2.3,3-4.1,5.3-5.3s4.9-1.9,7.8-1.9,6.5.8,8.9,2.6,4,4.1,4.8,7.1h-7.9s0,0,0,0Z"/>
    <path class="st1" d="M783.6,551.7h-7.2l-12-18.2v18.2h-7.2v-29.5h7.2l12,18.3v-18.3h7.2v29.5Z"/>
  </g>
  <g>
    <g>
      <path class="st0" d="M130.3,279.5c0,1.3.1,2.5.2,3.8v-1.1c1.3,31.6-5.2,62.9-13.9,93.1-4.4,15.4-9.3,30.6-14.2,45.8-5,15.7-10,31.4-14.9,47-5.6,17.6-11.2,35.2-16.8,52.8l22.3-9.3-.3-7.7c.2-.7,0-1.1-.5-1.4-.5-.5-1.2-.7-1.9-.5-2.3,0-5.3,1-7.4,1.9-2.9,1.3-5.9,2.8-8.4,4.7l-2,1.7c-.9.8-1.7,1.8-2.1,2.9l.3,7.7c-.2.7,0,1.1.5,1.4.5.5,1.2.7,1.9.5,2.3,0,5.3-1,7.4-1.9,2.9-1.3,5.9-2.8,8.4-4.7,1.5-1.2,3.5-2.6,4.1-4.6,5.1-15.9,10.1-31.8,15.2-47.8,5.1-16,10.2-32,15.2-48,4.9-15.5,10-31,14.5-46.6s8.5-31,11.2-46.9c2.7-15.8,4.2-31.8,3.6-47.8,0-2.2-.2-4.4-.3-6.5,0-1.4-4.2-.7-4.4-.6-2.8.5-5.9,1.8-8.4,3.1s-5.3,2.9-7.4,5l-1.4,1.5c-.7.7-.9,1.5-.7,2.4h0,0Z"/>
      <path class="st0" d="M157.8,288.7c20.2-7,40.3-13.9,60.5-20.9s40.3-13.9,60.5-20.9c11.3-3.9,22.7-7.8,34-11.7l-10.5-9.6c-8.1,7.6-16.3,15.2-24.4,22.8-1.6,1.5-3.7,3.5-3.9,5.9-.1,2,1.2,3.8,3.1,4.5,2.5.9,5.5.9,8.1.2,3-.8,6.4-2,8.7-4.2,8.1-7.6,16.3-15.2,24.4-22.8,1.5-1.4,3-2.8,3.6-4.9.4-1.5.3-3.3-1-4.4-3.6-3-9.1-1.7-13.1-.3-20.2,7-40.3,13.9-60.5,20.9s-40.3,13.9-60.5,20.9c-11.3,3.9-22.7,7.8-34,11.7-2.6.9-5.7,2.9-7.5,5.1-1.1,1.4-2.6,4-1.6,5.9,2.5,5,10.2,3.2,14.1,1.8h0Z"/>
      <path class="st0" d="M83.8,385.9c2.3-1.4,4.6-2.8,6.9-4.1.5-.3,1-.6,1.6-.9,1.7-1-2.8,1.6-1.5.9.3-.1.5-.3.8-.4,1.2-.7,2.5-1.4,3.7-2.1,4.6-2.6,9.3-5.1,14-7.5,9.5-4.9,19.1-9.5,28.9-13.7,4.9-2.1,9.8-4.1,14.7-6.1.6-.2,1.2-.5,1.9-.7.1,0-3.2,1.2-1.6.6.3-.1.6-.2.8-.3,1.3-.5,2.6-1,4-1.5,2.4-.9,4.9-1.8,7.4-2.7,10.1-3.6,20.2-6.9,30.5-9.8,11.6-3.3,23.2-6.2,35-8.6l-2.7.6c8.6-1.8,17.2-3.3,25.9-4.7,3-.5,5.9-1.6,8.4-3.3,2.3-1.5,5-4,6.3-6.5.8-1.7,1.8-4.2.5-5.9s-3.6-2.1-5.6-1.8c-25.5,4-50.8,9.7-75.4,17.4s-48.9,17.4-72.2,28.9c-13.5,6.6-26.6,13.9-39.4,21.6-2.4,1.4-5,4-6.3,6.5-.8,1.5-1.7,4.3-.4,5.9,3.4,4.3,10.6.6,14-1.5h0Z"/>
    </g>
    <path class="st0" d="M363.4,279.6c3.4-3.1,3.7-7.9,1.8-11.9-3.9-7.9-12.5-12.1-20.9-13.5-7.8-1.2-15.3.3-22,4.3-5.1,3-9.9,6.6-14.6,10.1-17.5,13-33.8,27.4-48.9,43.1-15,15.7-28.9,32.6-40.9,50.7-12.4,18.5-23.4,39.7-21.4,62.6.8,9.6,4.5,18.9,10.3,26.5s13.6,13.9,22,18.4c10,5.3,20.9,9,32.2,10.5,10.1,1.4,20.5,1.3,30.4-1.1,5.4-1.3,10.7-2.9,15.7-5.1s9.6-4.8,14.2-7.6c8.4-5.3,16-11.7,22.8-18.9,6.9-7.2,13.1-15.2,18.7-23.5,6.3-9.5,12-19.5,16.8-29.8,9.3-20,15.6-41.5,18.6-63.3.7-5.5,1.3-11,1.6-16.5.3-5.8.5-11.8-.2-17.6s-2.5-11.3-5.7-16.1c-3.9-5.8-9.9-10-16.2-12.8-3.7-1.6-7.9-2.8-11.9-3.3-3-.3-5.4-.4-8.4-.1-1.8.1-3.5.6-5.2,1.1s-2.8,2.2-2.4,3.9c.5,2,3,3.9,4.6,4.8,5.1,2.9,11.3,4.2,17,2.6h.4c0-.1-2.2.5-2.2.5.7-.2,1.4-.3,2.1-.4,1.6-.2-2.8,0-1.3,0,.4,0,.7,0,1.1,0-2.4-.2-3.1-.3-2.1-.2.2,0,.4,0,.5,0,.2,0,.4,0,.5,0,1,.2.2,0-2.4-.5.4,0,.7.2,1,.3,1.8.5-3.5-1.3-1.8-.6.3.1.7.3,1,.4,1.5.6-2.9-1.6-1.4-.7.6.4,1.2.8,1.9,1.1l-1.6-1.1c.2.1.4.3.6.4.2.2.5.4.7.6.6.5,1.2,1.1,1.8,1.6l-1.6-1.6c1.6,1.7,3,3.6,4.1,5.7l-.9-1.6c2.9,5.8,3.8,12.3,3.9,18.7v-1.6c0,7.7-.6,15.5-1.5,23.2s-2.3,15.4-4.1,23c-3.5,15.2-8.7,30-15.4,44.2-3.8,8-8,15.7-12.7,23.1l.8-1.3c-9.2,14.6-20.2,28.2-33.6,39.1-3.7,3-7.6,5.8-11.7,8.3l1.6-1c-7.3,4.4-15.1,7.9-23.3,10.1l2.2-.6c-2.3.6-4.6,1.1-6.9,1.5-1,.1-2,.3-3,.4-.5,0-1.1.1-1.7.2-.2,0-.4,0-.7,0-1.6.1,2.8-.2,1.3,0-2.2.1-4.5.1-6.7,0-.6,0-1.1,0-1.7,0-.2,0-.5,0-.7,0l2.4.2h-.3c-1.2-.1-2.3-.3-3.5-.4-1.1-.1-2.1-.3-3.1-.5-.6-.1-2.8-.6,0,0,2.7.6.4,0-.3-.1-1-.2-2.1-.5-3.1-.8-.5-.1-1-.3-1.4-.4-.3,0-.5-.2-.8-.3-1.9-.6,3.2,1.1,1.9.7-2-.7-4-1.5-6-2.4-.2-.1-.5-.2-.8-.4-.9-.4-2.1-1.1,1.7.8-.4-.2-.9-.5-1.3-.7-1-.5-2-1.1-3-1.7s-2-1.3-3-2c-.2-.1,2.5,1.8,1.4,1-.3-.2-.5-.4-.8-.6-.5-.4-.9-.7-1.4-1.1-1.9-1.5-3.7-3.1-5.4-4.9l1.6,1.6c-3.3-3.4-6.1-7.2-8.3-11.4l.9,1.6c-3.5-6.8-5.2-14.2-5.4-21.8v1.6c-.2-18.3,8-35.7,17.5-50.9l-.8,1.3c10.5-16.8,23-32.5,36.2-47.2s27.6-28.4,43-41c4.3-3.5,8.7-7,13.2-10.3s9-6.8,13.8-9.7l-1.6,1c2.4-1.4,4.8-2.6,7.5-3.4l-2.2.6c.5-.1,1.1-.3,1.6-.4.3,0,.5,0,.8-.1,1-.1.5,0-1.4,0,.3,0,.6,0,.8,0,1.1,0,.6,0-1.8-.2.3,0,.6,0,.9.1-2.7-.6-3.6-.8-2.5-.5,1.2.3-4-1.4-1.9-.6-2.3-1.2-2.9-1.5-1.9-1,.2,0,.3.2.5.3-1.8-1.3-2.3-1.6-1.5-1,.2.1.3.2.5.4.3.3.6.5.9.8l-1.6-1.6c.7.8,1.4,1.7,1.9,2.6l-.9-1.6c.7,1.3,1.1,2.8,1.1,4.3v-1.6c0,1.3-.4,2.4-1,3.5l.8-1.3c-.3.5-.7.9-1.1,1.2-1.4,1.3-.9,3.2,0,4.5,1.4,2,4.3,3.6,6.5,4.5,3,1.2,6.2,2.1,9.4,2,2.2,0,4.7-.2,6.4-1.7h0Z"/>
    <path class="st0" d="M451.3,271.7c.4.2.6.4,1,.6l-1.7-1.4c.3.3.6.7.8,1l-.9-1.8c.4.8.5,1.6.6,2.5v-2c0,1.8-.5,3.6-1.1,5.3l.8-2c-2.3,5.9-5,11.6-7.5,17.4s-5,11.6-7.5,17.4c-5.1,11.8-10.2,23.6-15.2,35.3-10.2,23.6-20.3,47.1-30.5,70.7-5.7,13.3-11.5,26.6-17.2,39.9-.7,1.7-1.1,3.2-.2,5,.9,1.7,2.6,2.8,4.4,3.3,12.8,3.1,25.6.5,37.9-3.5,10-3.3,20-6.4,30.3-8.8,5.8-1.4,11.6-2.6,17.4-3.6l-3.3.6c17-3,34.2-4.6,51.5-4.8h-3.1c3.6,0,7.3,0,10.9.1,3.3,0,6.5-.4,9.5-1.7,2.2-1,5.2-2.9,6.4-5.2.9-1.9,1.3-4.1-.2-5.9-1.6-1.8-4.3-2.8-6.7-2.9-17.3-.5-34.7.3-51.9,2.6s-34.4,5.8-51.1,10.8c-8.9,2.6-17.6,6.2-26.7,7.9l3.3-.6c-2.4.4-4.9.7-7.3.7h3.1c-2.1,0-4.3-.2-6.4-.5l2.7.5c-.6-.1-1.2-.2-1.8-.4l4.2,8.2c11.2-25.9,22.4-51.9,33.5-77.8s22.4-51.9,33.5-77.8c3.1-7.2,6.2-14.4,9.3-21.6,1.4-3.2,3.1-6.5,3.3-10,.3-4.2-1-8.2-5-10.3-2.5-1.3-5.3-1.7-8.1-1.4-3,.3-6.7,1.4-9.1,3.2-1.9,1.4-4.2,3.3-4.4,5.8-.2,2.1.6,4.2,2.7,5.2h0Z"/>
    <g>
      <path class="st0" d="M533.1,300.1c9.4-4.4,19.2-8.1,29.1-11.1l-1.7.5c22.8-6.9,46.6-10.3,70.4-10,6.7.1,13.4.3,20,1.2l-1.9-.3c1.7.3,3.2.8,4.8,1.5l-2.1-1c1.1.5,2.2,1.1,3.2,1.9l-2.2-1.6c.3.3.7.5,1,.8,1.3,1.1-2.5-2.7-1.1-1.1.7,1,.3.3-1.5-2,.6,1,.2.3-1.2-2.2.6,1.4-1.1-3.6-.6-1.7l-.5-2.7c0,.2,0,.5,0,.7v-2.3c0,.4,0,.8-.1,1.2l.6-1.9c-.2.6-.5,1.1-1,1.6-1.3,1.5-.6,5.3-.1,6.9.8,3,2.5,6.2,4.6,8.5,1.7,1.9,3.8,4.2,6.4,4.8l1.9.3c1.3,0,2.2-.7,2.8-1.8,1.7-2.1,2.1-5.2,1.7-7.8-.7-5.2-3.3-10.3-6.7-14.1-3.9-4.4-9.2-8.2-15-9.4-2.8-.6-5.7-.8-8.5-1-2.5-.2-5.1-.4-7.7-.5-5-.2-9.9-.3-14.9-.2-20.3.4-40.5,3.5-59.9,9.2-11.3,3.3-22.4,7.4-33.2,12.3-1.8.8-1.9,3.9-1.8,5.5.2,2.8,1.6,6.1,3.1,8.5s3.6,5.1,6.2,6.5c1.8,1,3.7,1.7,5.7.8h0Z"/>
      <path class="st0" d="M452.8,490.8c5.5-2.7,11.1-5.4,16.7-7.9,1.3-.6,2.5-1.1,3.8-1.7.7-.3,1.4-.6,2.1-.9,1.4-.6-1.2.5-1.1.5.5-.2,1-.4,1.5-.6,2.8-1.2,5.5-2.3,8.3-3.5,11.3-4.6,22.7-8.8,34.3-12.6,5.9-1.9,11.8-3.7,17.7-5.4.3,0,.6-.2.9-.3l-2,.6c.2,0,.4-.1.7-.2.7-.2,1.3-.4,2-.6,1.6-.4,3.1-.9,4.7-1.3,2.9-.8,5.8-1.5,8.7-2.3,11.8-3,23.7-5.5,35.7-7.6,6.7-1.2,13.5-2.6,19.5-6,4.9-2.8,10.1-7.2,9.1-13.5-.3-1.8-2.6-2.6-4-3-2.7-.8-6.2-.8-9-.4s-6.1.9-8.6,2.4c-1.3.8-3.5,2-3.2,3.9.2,1,.2,1.9,0,2.9l.3-1.4c-.3,1.4-.9,2.5-1.8,3.6l1.1-1.3c-.8,1-1.8,1.8-2.9,2.5l1.8-1.2c-.8.5-1.6,1-2.5,1.4-.2,0-.4.2-.6.3-.2,0,2.8-1.1,1.5-.7-.5.2-1,.4-1.6.6-.4.1-.8.3-1.3.4-1.4.5,2.3-.6,2-.6-.3,0-.5.1-.8.2-1,.2-2,.5-3,.6-5.3.9-10.6,1.9-15.9,3-10.7,2.2-21.4,4.7-31.9,7.5-22,5.9-43.6,13-64.6,21.6-12.1,4.9-24,10.3-35.7,16-1.2.6-3.4,2.1-3.2,3.9s2.7,2.7,4,3c5.6,1.4,12.4.6,17.6-2h0,0Z"/>
      <path class="st0" d="M580.5,274.2c-6.3,25.4-12.6,50.8-18.9,76.1-6.3,25.2-12.5,50.4-18.8,75.6-3.5,14.2-7.1,28.4-10.6,42.7-1.5,6.2,3.8,12.3,9.7,13.5s13-1.3,14.6-7.8c6.3-25.4,12.6-50.8,18.9-76.1,6.3-25.2,12.5-50.4,18.8-75.6,3.5-14.2,7.1-28.4,10.6-42.7,1.5-6.2-3.8-12.3-9.7-13.5s-13,1.3-14.6,7.8h0Z"/>
    </g>
    <path class="st0" d="M774.4,329.2c6.6-7.2,3.5-18.4-3.6-24-4.6-3.6-11.1-4.9-16.8-4.9-6.9-.1-13.8,1.2-20.4,3.1-12.4,3.6-24.1,8.7-35.2,15.2-9.2,5.3-17.8,11.7-25.8,18.7-15.8,13.6-29.5,29.7-42.1,46.2-6.6,8.6-13.1,17.5-18.4,27s-9.9,19.9-11.5,30.9c-2.6,17.5,2.4,37.4,16.9,48.6,9.1,7,21.1,9.3,32.3,9,12.6-.2,25-2.8,36.9-6.8,21.2-7.2,40.7-19.9,56.4-35.8s28-35.3,37.7-55.7c4.8-10.1,9-20.5,12.8-31,1.9-5.2,3.7-10.4,5.4-15.6,1.8-5.6,3.6-11.2,4.8-16.9,2.2-11,1.7-22.5-4-32.5-4.9-8.5-12.3-15.3-20-21.1-3.8-2.8-7.7-5.5-11.7-8-1.8-1.1-4.5-1-6.4-.8-3.1.4-6.5,1.4-9.2,2.9-2.2,1.1-4.9,2.5-6.2,4.7-.8,1.2-1.5,3,.1,4,9.5,6.2,19.2,12.8,26.5,21.7l-.9-1.1c5.8,7.2,9.3,15.7,9.5,25v-1.4c.2,11.8-3.9,23.1-7.6,34.2-3.6,10.5-7.4,20.8-11.7,31-2.5,5.8-5.1,11.5-8,17.2l.8-1.5c-7.9,15.5-17.4,30.3-29.3,43.1l1.5-1.6c-4.3,4.6-9,9-13.9,13.1-1.2,1-2.5,2-3.7,3-.2.2-.4.3-.6.5l1.5-1.1c-.2.2-.4.3-.6.5-.7.5-1.5,1.1-2.2,1.6-2.6,1.8-5.2,3.6-7.9,5.2-.6.4-1.2.7-1.9,1.1h-.2c-1,.7-.5.4,1.6-.8-.3.2-.7.4-1,.6-1.5.8-3,1.6-4.5,2.4-1.3.6-2.6,1.2-3.9,1.8-.4.2-.7.3-1.1.5-1.8.8,3.4-1.4,1.6-.7-.7.3-1.5.6-2.2.9-1.5.6-2.9,1.1-4.4,1.6-.7.2-1.5.5-2.2.7-1.6.5,2.4-.7,2.1-.6-.5.1-1,.3-1.5.4-1.5.4-3,.8-4.5,1.2-.6.1-1.3.3-1.9.4-.4,0-.8.2-1.2.2-.3,0-.5.1-.8.1,2.3-.4,2.9-.5,1.8-.4-3.5.6-7.1,1.1-10.6,1.3-1.8.1,2.7-.1.9,0-.5,0-1,0-1.5,0-1,0-1.9,0-2.8,0-2,0-4.1-.2-6.1-.4l2.2.3c-4-.5-8-1.4-11.7-3l1.6.7c-5.6-2.4-10.5-6.1-14.3-10.8l.9,1.1c-6.8-8.6-10.1-19.5-10.4-30.4v1.4c-.2-12.1,3.5-23.8,8.9-34.4l-.8,1.5c4.5-8.9,10.2-17.2,16.1-25.2,5.5-7.4,11.1-14.7,17-21.8,3.4-4,6.8-8,10.4-11.8l-1.5,1.6c4.4-4.7,8.9-9.3,13.7-13.6,2.4-2.1,4.8-4.2,7.2-6.3,1.2-1,2.5-2,3.7-3,.5-.4,1-.8,1.6-1.2,1.4-1-2.2,1.7-.8.6.4-.3.8-.6,1.3-.9,2.5-1.9,5.2-3.6,7.8-5.4,1.3-.9,2.7-1.7,4-2.5.6-.3,1.1-.7,1.7-1-4.1,2.4-.9.5.1,0,2.8-1.5,5.6-2.9,8.5-4.2.4-.2.7-.3,1.1-.5l-2.3,1c.2-.1.5-.2.7-.3.6-.2,1.2-.5,1.8-.7,1.6-.6,3.2-1.2,4.8-1.8.9-.3,1.8-.6,2.6-.9.2,0,.5-.2.8-.2-2.5.8-3.2,1-2,.6.2,0,.5-.1.8-.2,1.9-.5,3.8-1,5.7-1.4s-3.2.6-1.3.2c.4,0,.8-.1,1.3-.2,1-.1,2-.2,3-.3,1.8-.2-2.7,0-1,0,.6,0,1.1,0,1.7,0,1,0,1.9,0,2.9.2l-2.2-.3c2.1.3,4,.8,6,1.5l-1.6-.7c2.6,1.1,4.7,2.6,6.5,4.8l-.9-1.1c2.2,2.8,3.7,6.2,3.8,9.8v-1.4c0,1.9-.4,3.8-1.2,5.5l.8-1.5c-.4.8-1,1.5-1.6,2.2-1.1,1.2-1.1,3,.1,4,1.5,1.2,4.7,1,6.4.8,5.8-.8,11.5-3.2,15.5-7.5h0s0,0,0,0Z"/>
  </g>
  <path class="st1" d="M13.6,443.1c-.4,17.5-.8,35.1-1.3,52.6l-1.3,52.6-.2,6.7c0,1.5-.3,3.3,1.1,4.3,1.6,1.1,4,1,5.8.9,2.2-.1,4.4-.3,6.7-.4,8.7-.5,17.4-1.1,26.1-1.7,17.6-1.1,35.2-2.2,52.8-3.3s35-2.2,52.5-3.3c2.2-.1,4.3-.3,6.5-.4.6,0,1.6-.1.9-.8s-2.6-.5-3.4-.5c-17,1.1-34,2.2-51.1,3.2-17.1,1.1-34.2,2.2-51.3,3.3-8.5.5-16.9,1.1-25.4,1.6-4.3.3-8.6.5-13,.8-1,0-2,.1-3,.2-.3,0-1.6,0-.4,0,1,0,.3,0,.3-.3,0-.2-.2-.5-.3-.8-.4-1.8,0-4,0-5.9.4-17,.8-34.1,1.2-51.1s.8-34.1,1.2-51.1l.2-6.5c0-.9-5-1.2-5-.4h0Z"/>
  <path class="st1" d="M773.5,47.3c1.7,1.6,2.5,2,2.4,1,0,0,0-.1,0-.2,0-.2,0-.4.1-.5.3-.5,1-.6,1.5-.6,1.5-.1,3.2,0,4.7,0,3.2,0,6.5,0,9.7,0,6.5,0,13.1,0,19.6,0l-3.7-2.1c-1.4,19.5-2.8,39-4.2,58.5-.4,5.6-.8,11.1-1.2,16.7,0,1.5,4.5,3.1,4.7,1.3,1.4-19.5,2.8-39,4.2-58.5.4-5.6.8-11.1,1.2-16.7,0-1.3-2.7-2.1-3.7-2.1-8.4,0-16.7,0-25.1-.1-2.1,0-4.1,0-6.2,0-1.7,0-3.6-.2-5.1.5-1.2.6-1.6,1.9-1,3.1.8,1.5,3,2.6,4.6,2.4,1,0,1.3-.7.6-1.5s-2.2-1.5-3.2-1.4h0Z"/>
  <g>
    <path class="st1" d="M756.8,174.9c2.7-2.3,4.9-4.1,6.5-5.6s2.9-3,4-4.6,1.6-3.1,1.6-4.7-.3-2-.8-2.7c-.5-.6-1.3-1-2.4-1s-1.9.4-2.5,1.2-.9,1.9-.9,3.4h-6.9c0-2.4.6-4.4,1.5-6,1-1.6,2.2-2.8,3.8-3.5s3.3-1.1,5.3-1.1c3.3,0,5.8.9,7.5,2.6,1.7,1.7,2.5,3.9,2.5,6.7s-1,5.8-3.1,8.3c-2,2.6-4.7,5.1-7.8,7.5h11.3v5.8h-21.1v-5.3c1-.8,1.4-1.1,1.3-1.1h0Z"/>
    <path class="st1" d="M782.5,154.6c1.9-2.8,4.9-4.2,9-4.2s7.2,1.4,9,4.2,2.8,6.6,2.8,11.4-.9,8.7-2.8,11.5c-1.9,2.8-4.9,4.2-9,4.2s-7.2-1.4-9-4.2-2.8-6.6-2.8-11.5.9-8.6,2.8-11.4ZM795.3,159.4c-.6-1.5-1.9-2.3-3.8-2.3s-3.2.8-3.8,2.3c-.6,1.5-.9,3.7-.9,6.5s.1,3.5.3,4.7c.2,1.2.7,2.2,1.4,3s1.7,1.1,3,1.1,2.4-.4,3-1.1c.7-.8,1.1-1.8,1.4-3,.2-1.2.3-2.8.3-4.7,0-2.8-.3-5-.9-6.5h0Z"/>
    <path class="st1" d="M756.8,225.3c2.7-2.3,4.9-4.1,6.5-5.6s2.9-3,4-4.6,1.6-3.1,1.6-4.7-.3-2-.8-2.7c-.5-.6-1.3-1-2.4-1s-1.9.4-2.5,1.2-.9,1.9-.9,3.4h-6.9c0-2.4.6-4.4,1.5-6,1-1.6,2.2-2.8,3.8-3.5s3.3-1.1,5.3-1.1c3.3,0,5.8.9,7.5,2.6,1.7,1.7,2.5,3.9,2.5,6.7s-1,5.8-3.1,8.3c-2,2.6-4.7,5.1-7.8,7.5h11.3v5.8h-21.1v-5.3c1-.8,1.4-1.1,1.3-1.1h0Z"/>
    <path class="st1" d="M779.9,226.6v-5.8l13.3-19h8v18.6h3.4v6.2h-3.4v5.5h-7.2v-5.5h-14.1ZM794.5,209.8l-7.1,10.7h7.1v-10.7Z"/>
  </g>
  <g>
    <path class="st1" d="M23,328.2v-5.7c0-1.1-1.1-2-2.1-2.5-.6-.2-2.4-.7-2.4.5v72.1c0,1.1,1.1,2,2.1,2.5.6.2,2.4.7,2.4-.5v-72c0-1.1-1.1-2-2.1-2.5-.6-.2-2.4-.7-2.4.5v5.7c0,1.1,1.1,2,2.1,2.5.6.2,2.4.7,2.4-.5h0Z"/>
    <path class="st1" d="M7.3,343.1c10.5,7.7,20.3,16.3,29.4,25.7.8.8,2.3,1.2,3.4,1,1-.2,1.2-.9.5-1.7-9.3-9.6-19.4-18.4-30.2-26.4-.8-.6-2.5-1.1-3.4-.5-1,.5-.3,1.4.4,1.9h0Z"/>
    <path class="st1" d="M4.8,371.7c10.9-11.6,22.8-22.2,35.7-31.6,1-.7,1.2-1.9.4-2.8-.7-.8-2.4-1.6-3.4-.8-13.2,9.6-25.4,20.3-36.6,32.2-1.9,2,2.2,4.9,3.9,3h0Z"/>
  </g>
  <g>
    <g>
      <path class="st1" d="M622,633.9c7.9-17,16.6-33.6,26-49.8l-2.1.5c1.7,14.5-2.9,28.7-4,43,0,1,2.2,0,2.2-1,1.1-14.4,5.7-28.5,4-43-.1-1.1-1.9,0-2.1.5-9.4,16.2-18.1,32.8-26,49.8-.6,1.3,1.7.8,2,0h0Z"/>
      <path class="st1" d="M636.5,618.7c1.8-1.6,3.7-3.1,5.7-4.5,1.2-.9,4.6-3.9,6-2.2,1.2,1.5,1.3,4.2,1.6,6,.5,2.6,1,5.2,1.4,7.8,0,.4,1.3,2.2,1.8,1.5,1.5-1.8,3-3.6,4.5-5.4h-.8c.5.2.7,1.1.9,1.6.3.6.6,1.2,1.1,1.8.7.9,1.9,1.7,3.1,1.5,2.5-.4,2.9-4,5.1-5l-1.5-1.1c.8,1.5,1.7,3,2.5,4.5.2.4,1.4,1.7,1.8.9,6.2-13.3,12.4-26.9,15.2-41.4.1-.7-1.6-2.4-1.9-1.5-2.2,7.2-3.8,14.6-4.9,22.1-.5,3.6-1,7.2-1.1,10.9,0,2.1.9,5,3.4,5.2.2,0,.4,0,.4-.2,2.1-6.9,4.1-13.7,6.2-20.6l-1.9-1.3c-.2,7.1-.4,14.3-.5,21.4,0,.7,1,1.7,1.7,1.5,1-.2,1.9-.3,2.9-.4.8-.1-.6-2.1-1.4-2-1,.2-1.9.3-2.9.4l1.7,1.5c.1-7.2.3-14.3.5-21.4,0-.6-1.6-2.2-1.9-1.3-2.1,6.9-4.1,13.7-6.2,20.6l.4-.2c-.5,0,0,.2-.2,0-.1-.3-.2-.5-.2-.8,0-.6,0-1.1,0-1.7.1-1.6.2-3.2.4-4.8.3-3.1.8-6.2,1.3-9.2,1-6.1,2.5-12.2,4.3-18.1l-1.9-1.5c-2.8,14.5-9,28-15.2,41.4l1.8.9c-.8-1.5-1.7-3-2.5-4.5-.2-.3-1-1.3-1.5-1.1-1,.5-1.7,1.3-2.4,2.2-.6.8-1.1,2-2.1,2.5-1.3.8-1.6-.6-2.1-1.6-.6-1.2-1.3-2.1-2.3-2.9-.2-.1-.6-.3-.8,0-1.5,1.8-3,3.6-4.5,5.4l1.8,1.5c-.6-3.3-1.2-6.6-1.8-9.9-.4-2.3-.9-4.6-2.7-6.3-.7-.7-1.6-1.2-2.6-1.2-1.3,0-2.5.7-3.6,1.4-2.7,1.8-5.3,3.8-7.8,5.9-.6.5,1.1,2.4,1.7,1.8h0Z"/>
    </g>
    <g>
      <path class="st1" d="M698.6,632.4c6.4-15.7,13.4-31.1,21-46.2l-2-1.4c-1,16.9-2.8,33.7-5.2,50.4,0,.6,2,1.8,2,1.3,2.4-16.7,4.2-33.5,5.2-50.4,0-.4-1.8-1.8-2-1.4-7.6,15.1-14.6,30.6-21,46.2-.2.6,1.9,1.8,2,1.5h0Z"/>
      <path class="st1" d="M709.9,613.1c3.8,2.9,8.3,4.4,13.1,4.4l-.7-.2c-.4,3.3,1.4,6.5,4.4,7.8.5.2,2.1.2,2.4-.3,1.2-2.2,2.4-4.3,3.6-6.5l-2.4.2c.8,2.3,1.5,4.7,2.3,7,.6,1.7,1.9,2.2,3.7,2s3.1-1.4,4-2.9c1.2-2,2-4.3,2.8-6.4,3.4-8.9,5.3-18.2,5.9-27.7.3-5.4,0-10.8-.5-16.2,0-.5-2.5-.2-2.5.3-.1,16.5-.3,33-.4,49.6,0,.4,2.3.2,2.4-.2,1.7-4.7,3.3-9.5,5-14.2l-2.4.2c-.6,5.5,0,11,1.8,16.3.2.5,2.2.1,2.4-.2,1.5-2.4,3.1-4.8,4.6-7.2l-2.4.3c.8,1,1.7,2,2.5,2.9.3.4,2.2,0,2.4-.3,1.7-3.3,5-3.4,8.2-2.7s6.5,1.5,9.9,1.8c7,.5,14-.7,20.9-1.8.2,0,1.3-.2,1.2-.5s-1.1-.2-1.3-.2c-8,1.3-16.3,2.7-24.3,1.1-3.4-.7-6.8-1.9-10.3-1.5-2.6.3-5.4,1.4-6.7,3.9l2.4-.3c-.8-1-1.7-2-2.5-2.9-.3-.4-2.1,0-2.4.3-1.5,2.4-3.1,4.8-4.6,7.2l2.4-.2c-1.8-5.2-2.4-10.8-1.8-16.3,0-.3-2.3-.2-2.4.2-1.7,4.7-3.3,9.5-5,14.2l2.4-.2c.1-16.5.3-33,.4-49.6l-2.5.3c2,16.6-.5,34-7.6,49.2-.4.8-.9,1.6-1.5,2.3s-.5.3-.7.6c.3-.3.5.4,0-.2-.4-.4-.7-.8-.9-1.4-.9-2.3-1.6-4.7-2.3-7-.2-.5-2.2-.1-2.4.2-1.2,2.2-2.4,4.3-3.6,6.5l2.4-.3c-3-1.3-4.7-4.4-4.3-7.7,0-.2-.6-.2-.7-.2-4.3,0-8.5-1.5-11.9-4.2-.4-.3-1.2-.1-1.5,0-.1,0-1.1.3-.8.5h0s0,0,0,0Z"/>
    </g>
  </g>
  <path class="st1" d="M15.4,31.5c5.4-10.6,12.8-20.2,21.6-28.2l-4.1-2.7c.4,4.8.8,9.7,2.3,14.3,1.4,4.2,3.8,7.8,7.3,10.5,3.3,2.6,7.4,5,11.7,5,3.7,0,6.7-1.8,9.2-4.3,2.5-2.5,4.5-5.5,7.5-7.3,1.4-.9,2.9-1.3,4.5-1.2.3,0,.7,0,1,.1.1,0,.7.3.8.3.1,0,0,0-.2-.2-.3-.1,0,0,.2.2,2.2,2.2,3.6,5.1,5.4,7.6,2.1,3,4.9,5.5,8.2,7.1,5.2,2.6,10.1,0,14.3-3.3s8.1-8,13.2-10.2c1.1-.5,2.2-.7,3.4-.7s1,0,1.5.2c.3,0,.5.2.8.2.4.1,0,0-.1-.1.6.7,1.4,1.4,2,2.1.8.9,1.7,1.7,2.6,2.4,1.8,1.4,3.9,2.7,6.2,3.3,3.9,1,7.8-.2,11.4-1.4,4.2-1.4,8.4-3.3,12.9-3.5,5.3-.2,10.4,1.5,15.5,2.6s10.3,1.4,15.5,1.2c10.7-.4,21.2-2.9,31.4-5.9,2.5-.7,5.1-1.5,7.6-2.2.6-.2-.9-1.3-1.1-1.5-.5-.4-2-1.7-2.7-1.5-9.9,3-20,5.9-30.3,7.3-5.1.7-10.4,1-15.5.7s-10-1.5-15-2.6-9.4-1.6-14.2-.3c-4.1,1.1-7.9,2.9-12,3.9-1.8.5-3.7.7-5.6.6-.9,0-1.8-.3-2.6-.6,0,0-.5-.3-.2-.1,0,0,.3.2,0,0-.4-.4-.8-.8-1.2-1.2-2.6-2.7-5.7-5.6-9.5-6.4-4.9-1-9.4,3-12.8,6-3.8,3.4-8,7.9-13.2,9-1.1.2-2.3.3-3.5,0-.5-.1-1-.3-1.5-.5,0,0,.2.2.3.2-.1,0-.4-.4-.6-.5-2.1-2.1-3.5-4.9-5.2-7.3-3.4-4.9-10.1-10.6-16.2-6.8-5.8,3.6-8.6,11.7-16.4,11.5-3.6,0-6.4-1.6-8.4-4.5-2.6-3.8-3.7-8.5-4.3-13-.3-2.3-.5-4.6-.7-6.8,0-.7-3.5-3.2-4.1-2.7-8.9,8-16.2,17.5-21.6,28.2-.4.8,3.9,3.3,4.1,2.9h0Z"/>
  <g>
    <path class="st1" d="M186.6,520.7v17.6c0,1.8.4,3.1,1.3,4.1.9,1,2.1,1.4,3.8,1.4s3-.5,3.9-1.4c.9-1,1.3-2.3,1.3-4.1v-17.6h7.2v17.6c0,2.6-.6,4.9-1.7,6.7-1.1,1.8-2.6,3.2-4.5,4.1s-4,1.4-6.3,1.4-4.4-.5-6.2-1.4c-1.8-.9-3.3-2.3-4.3-4.1-1.1-1.8-1.6-4.1-1.6-6.7v-17.6h7.2Z"/>
    <path class="st1" d="M216.3,520.7v29.5h-7.2v-29.5h7.2Z"/>
    <path class="st1" d="M237.5,510.3l-11.3,47.8h-6.9l11.3-47.8h6.9Z"/>
    <path class="st1" d="M247.6,520.7v17.6c0,1.8.4,3.1,1.3,4.1.9,1,2.1,1.4,3.8,1.4s3-.5,3.9-1.4c.9-1,1.3-2.3,1.3-4.1v-17.6h7.2v17.6c0,2.6-.6,4.9-1.7,6.7-1.1,1.8-2.6,3.2-4.5,4.1s-4,1.4-6.3,1.4-4.4-.5-6.2-1.4c-1.8-.9-3.3-2.3-4.3-4.1-1.1-1.8-1.6-4.1-1.6-6.7v-17.6h7.2Z"/>
    <path class="st1" d="M288.2,550.2l-6-9-5.3,9h-8.1l9.5-15-9.7-14.5h8.4l5.9,8.9,5.2-8.9h8.1l-9.4,14.9,9.7,14.6h-8.4Z"/>
    <path class="st1" d="M328.3,520.7v5.8h-12v6.2h9v5.6h-9v11.9h-7.2v-29.5h19.2Z"/>
    <path class="st1" d="M347.1,550.2l-6.1-11.1h-1.7v11.1h-7.2v-29.5h12.1c2.3,0,4.3.4,5.9,1.2,1.6.8,2.9,1.9,3.7,3.3.8,1.4,1.2,3,1.2,4.7s-.6,3.7-1.7,5.2c-1.1,1.5-2.7,2.6-4.9,3.3l6.8,11.7h-8.1ZM339.2,534h4.5c1.3,0,2.3-.3,3-1,.7-.6,1-1.6,1-2.7s-.3-2-1-2.6c-.7-.6-1.6-1-3-1h-4.5v7.3Z"/>
    <path class="st1" d="M365.8,548.6c-2.3-1.3-4.1-3.1-5.5-5.4-1.4-2.3-2-4.9-2-7.8s.7-5.5,2-7.8c1.4-2.3,3.2-4.1,5.5-5.4,2.3-1.3,4.9-1.9,7.6-1.9s5.3.6,7.6,1.9,4.1,3.1,5.5,5.4c1.3,2.3,2,4.9,2,7.8s-.7,5.5-2,7.8c-1.3,2.3-3.2,4.1-5.5,5.4s-4.8,1.9-7.6,1.9-5.3-.6-7.6-1.9ZM379,541.6c1.4-1.6,2.1-3.6,2.1-6.2s-.7-4.7-2.1-6.2c-1.4-1.6-3.3-2.3-5.6-2.3s-4.3.8-5.7,2.3c-1.4,1.5-2.1,3.6-2.1,6.3s.7,4.7,2.1,6.2c1.4,1.6,3.3,2.3,5.7,2.3s4.2-.8,5.6-2.4Z"/>
    <path class="st1" d="M418.8,550.2h-7.2l-12-18.2v18.2h-7.2v-29.5h7.2l12,18.3v-18.3h7.2v29.5Z"/>
    <path class="st1" d="M445.2,520.7v5.8h-7.8v23.7h-7.2v-23.7h-7.8v-5.8h22.8Z"/>
    <path class="st1" d="M464.9,526.5v6h9.6v5.5h-9.6v6.5h10.9v5.8h-18.1v-29.5h18.1v5.8h-10.9Z"/>
    <path class="st1" d="M506.9,550.2h-7.2l-12-18.2v18.2h-7.2v-29.5h7.2l12,18.3v-18.3h7.2v29.5Z"/>
    <path class="st1" d="M531.3,522.6c2.3,1.2,4.1,3,5.4,5.2,1.3,2.2,1.9,4.8,1.9,7.7s-.6,5.4-1.9,7.7c-1.3,2.2-3.1,4-5.4,5.2-2.3,1.2-5,1.8-8.1,1.8h-11v-29.5h11c3.1,0,5.8.6,8.1,1.8ZM529,541.8c1.5-1.5,2.3-3.6,2.3-6.3s-.8-4.8-2.3-6.3c-1.5-1.5-3.6-2.3-6.3-2.3h-3.4v17.1h3.4c2.7,0,4.8-.7,6.3-2.2Z"/>
    <path class="st1" d="M570.7,522.6c2.3,1.2,4.1,3,5.4,5.2,1.3,2.2,1.9,4.8,1.9,7.7s-.6,5.4-1.9,7.7c-1.3,2.2-3.1,4-5.4,5.2-2.3,1.2-5,1.8-8.1,1.8h-11v-29.5h11c3.1,0,5.8.6,8.1,1.8ZM568.4,541.8c1.5-1.5,2.3-3.6,2.3-6.3s-.8-4.8-2.3-6.3c-1.5-1.5-3.6-2.3-6.3-2.3h-3.4v17.1h3.4c2.7,0,4.8-.7,6.3-2.2Z"/>
    <path class="st1" d="M589.2,526.5v6h9.6v5.5h-9.6v6.5h10.9v5.8h-18.1v-29.5h18.1v5.8h-10.9Z"/>
    <path class="st1" d="M632.4,520.7l-10.5,29.5h-9l-10.5-29.5h7.6l7.3,22.3,7.3-22.3h7.6Z"/>
    <path class="st1" d="M642.6,526.5v6h9.6v5.5h-9.6v6.5h10.9v5.8h-18.1v-29.5h18.1v5.8h-10.9Z"/>
    <path class="st1" d="M665.3,544.7h9.4v5.5h-16.6v-29.5h7.2v23.9Z"/>
    <path class="st1" d="M684.5,548.6c-2.3-1.3-4.1-3.1-5.5-5.4-1.4-2.3-2-4.9-2-7.8s.7-5.5,2-7.8,3.2-4.1,5.5-5.4c2.3-1.3,4.9-1.9,7.6-1.9s5.3.6,7.6,1.9c2.3,1.3,4.1,3.1,5.5,5.4s2,4.9,2,7.8-.7,5.5-2,7.8c-1.3,2.3-3.2,4.1-5.5,5.4-2.3,1.3-4.8,1.9-7.6,1.9s-5.3-.6-7.6-1.9ZM697.8,541.6c1.4-1.6,2.1-3.6,2.1-6.2s-.7-4.7-2.1-6.2c-1.4-1.6-3.3-2.3-5.6-2.3s-4.3.8-5.7,2.3c-1.4,1.5-2.1,3.6-2.1,6.3s.7,4.7,2.1,6.2c1.4,1.6,3.3,2.3,5.7,2.3s4.2-.8,5.6-2.4Z"/>
    <path class="st1" d="M732.5,534.9c-.8,1.4-2,2.6-3.6,3.4-1.6.9-3.6,1.3-6,1.3h-4.5v10.6h-7.2v-29.5h11.6c2.4,0,4.3.4,6,1.2,1.6.8,2.8,1.9,3.7,3.4.8,1.4,1.2,3.1,1.2,4.9s-.4,3.3-1.2,4.7ZM725.3,532.9c.7-.6,1-1.6,1-2.7s-.3-2.1-1-2.7-1.7-1-3.1-1h-3.9v7.4h3.9c1.4,0,2.4-.3,3.1-1Z"/>
    <path class="st1" d="M744.6,526.5v6h9.6v5.5h-9.6v6.5h10.9v5.8h-18.1v-29.5h18.1v5.8h-10.9Z"/>
    <path class="st1" d="M775.1,550.2l-6.1-11.1h-1.7v11.1h-7.2v-29.5h12.1c2.3,0,4.3.4,5.9,1.2,1.6.8,2.9,1.9,3.7,3.3.8,1.4,1.2,3,1.2,4.7s-.6,3.7-1.7,5.2c-1.1,1.5-2.7,2.6-4.9,3.3l6.8,11.7h-8.1ZM767.3,534h4.5c1.3,0,2.3-.3,3-1,.7-.6,1-1.6,1-2.7s-.3-2-1-2.6c-.7-.6-1.6-1-3-1h-4.5v7.3Z"/>
  </g>
</svg>