<?xml version="1.0" encoding="UTF-8"?>
<svg id="Layer_2" xmlns="http://www.w3.org/2000/svg" version="1.1" viewBox="0 0 813 637">
  <!-- Generator: Adobe Illustrator 29.1.0, SVG Export Plug-In . SVG Version: 2.1.0 Build 142)  -->
  <defs>
    <style>
      .st0 {
        fill: #2727ff;
      }

      .st1 {
        fill: #efefef;
      }
    </style>
  </defs>
  <g>
    <path class="st1" d="M168.06,165.38c-5.9,10.5-14.8,18.9-26.7,25.2-11.9,6.3-26.45,9.45-43.65,9.45h-29.1v71.4H9.81V59.93h87.9c17,0,31.45,3,43.35,9,11.9,6,20.85,14.3,26.85,24.9s9,22.8,9,36.6c0,12.8-2.95,24.45-8.85,34.95h0ZM116.91,130.43c0-15.4-8.3-23.1-24.9-23.1h-23.4v45.9h23.4c16.6,0,24.9-7.6,24.9-22.8Z"/>
    <path class="st1" d="M247.4,259.58c-16.6-9.3-29.75-22.2-39.45-38.7s-14.55-35.15-14.55-55.95,4.85-39.45,14.55-55.95c9.7-16.5,22.85-29.35,39.45-38.55,16.6-9.2,34.8-13.8,54.6-13.8s38.25,4.6,54.75,13.8c16.5,9.2,29.55,22.05,39.15,38.55s14.4,35.15,14.4,55.95-4.8,39.45-14.4,55.95-22.7,29.4-39.3,38.7c-16.6,9.3-34.8,13.95-54.6,13.95s-38-4.65-54.6-13.95ZM337.56,204.23c8.7-9.8,13.05-22.9,13.05-39.3s-4.35-30.05-13.05-39.75c-8.7-9.7-20.55-14.55-35.55-14.55s-27.1,4.85-35.7,14.55c-8.6,9.7-12.9,22.95-12.9,39.75s4.3,29.75,12.9,39.45,20.5,14.55,35.7,14.55,26.85-4.9,35.55-14.7Z"/>
    <path class="st1" d="M543.8,271.43l-42-78h-6.3v78h-58.8V59.93h92.7c17,0,31.4,2.95,43.2,8.85s20.7,14,26.7,24.3,9,21.85,9,34.65c0,14.4-3.95,27.05-11.85,37.95-7.9,10.9-19.45,18.65-34.65,23.25l47.7,82.5h-65.7ZM495.5,153.23h29.1c8,0,14-1.9,18-5.7,4-3.8,6-9.3,6-16.5,0-6.8-2.05-12.15-6.15-16.05-4.1-3.9-10.05-5.85-17.85-5.85h-29.1v44.1Z"/>
    <path class="st1" d="M794.3,59.93v46.8h-56.4v164.7h-58.8V106.73h-55.8v-46.8h171Z"/>
  </g>
  <g>
    <path class="st1" d="M254.98,531.57c-.53-.98-1.3-1.73-2.29-2.25-.99-.52-2.16-.78-3.51-.78-2.32,0-4.19.76-5.59,2.29-1.4,1.53-2.1,3.56-2.1,6.11,0,2.72.74,4.84,2.21,6.36,1.47,1.53,3.49,2.29,6.07,2.29,1.76,0,3.26-.45,4.47-1.34,1.22-.9,2.11-2.18,2.67-3.86h-9.11v-5.29h15.62v6.68c-.53,1.79-1.44,3.46-2.71,5s-2.89,2.79-4.85,3.74-4.17,1.43-6.64,1.43c-2.91,0-5.51-.64-7.79-1.91-2.28-1.27-4.06-3.04-5.33-5.31s-1.91-4.86-1.91-7.77.64-5.51,1.91-7.79c1.27-2.28,3.04-4.06,5.31-5.33s4.86-1.91,7.77-1.91c3.53,0,6.5.85,8.93,2.56,2.42,1.71,4.02,4.07,4.81,7.1h-7.94v-.02Z"/>
    <path class="st1" d="M282.45,551.73l-6.13-11.13h-1.72v11.13h-7.18v-29.48h12.05c2.32,0,4.3.41,5.94,1.22s2.86,1.92,3.67,3.34c.81,1.41,1.22,2.99,1.22,4.72,0,1.96-.55,3.71-1.66,5.25-1.11,1.54-2.74,2.63-4.89,3.28l6.8,11.68h-8.11.01ZM274.6,535.52h4.45c1.32,0,2.3-.32,2.96-.97.66-.64.99-1.55.99-2.73s-.33-2-.99-2.65c-.66-.64-1.65-.97-2.96-.97h-4.45v7.31h0Z"/>
    <path class="st1" d="M313.15,546.52h-11l-1.76,5.21h-7.52l10.67-29.48h8.32l10.67,29.48h-7.6l-1.76-5.21h-.02ZM311.3,540.98l-3.65-10.79-3.61,10.79h7.27-.01Z"/>
    <path class="st1" d="M347.05,536.42c-.78,1.41-1.99,2.55-3.61,3.42s-3.64,1.3-6.05,1.3h-4.45v10.58h-7.18v-29.48h11.63c2.35,0,4.34.41,5.96,1.22s2.84,1.93,3.65,3.36,1.22,3.07,1.22,4.91c0,1.71-.39,3.27-1.18,4.68h0ZM339.91,534.47c.67-.64,1.01-1.55,1.01-2.73s-.34-2.08-1.01-2.73c-.67-.64-1.69-.97-3.07-.97h-3.91v7.39h3.91c1.37,0,2.39-.32,3.07-.97h0Z"/>
    <path class="st1" d="M377.5,522.25v29.48h-7.18v-12.14h-11.17v12.14h-7.18v-29.48h7.18v11.55h11.17v-11.55h7.18Z"/>
    <path class="st1" d="M389.84,522.25v29.48h-7.18v-29.48h7.18Z"/>
    <path class="st1" d="M395.72,529.16c1.26-2.28,3.02-4.06,5.27-5.33s4.81-1.91,7.67-1.91c3.5,0,6.5.92,8.99,2.77,2.49,1.85,4.16,4.37,5,7.56h-7.9c-.59-1.23-1.42-2.17-2.5-2.81s-2.3-.97-3.67-.97c-2.21,0-4,.77-5.38,2.31-1.37,1.54-2.06,3.6-2.06,6.17s.69,4.63,2.06,6.17,3.16,2.31,5.38,2.31c1.37,0,2.6-.32,3.67-.97,1.08-.64,1.91-1.58,2.5-2.81h7.9c-.84,3.19-2.51,5.71-5,7.54-2.49,1.83-5.49,2.75-8.99,2.75-2.86,0-5.41-.64-7.67-1.91-2.25-1.27-4.01-3.04-5.27-5.31-1.26-2.27-1.89-4.86-1.89-7.77s.63-5.51,1.89-7.79h0Z"/>
    <path class="st1" d="M431.93,550.98c-1.71-.7-3.07-1.74-4.09-3.11s-1.56-3.02-1.62-4.96h7.64c.11,1.09.49,1.93,1.13,2.5s1.48.86,2.52.86,1.9-.25,2.52-.74.92-1.17.92-2.04c0-.73-.25-1.33-.74-1.81s-1.09-.87-1.81-1.18c-.71-.31-1.73-.66-3.04-1.05-1.9-.59-3.46-1.18-4.66-1.76-1.2-.59-2.24-1.46-3.11-2.6-.87-1.15-1.3-2.65-1.3-4.49,0-2.74.99-4.89,2.98-6.45,1.99-1.55,4.58-2.33,7.77-2.33s5.87.78,7.85,2.33c1.99,1.55,3.05,3.72,3.19,6.49h-7.77c-.06-.95-.41-1.7-1.05-2.25s-1.47-.82-2.48-.82c-.87,0-1.57.23-2.1.69-.53.46-.8,1.13-.8,2,0,.95.45,1.69,1.34,2.23.9.53,2.29,1.11,4.2,1.72,1.9.64,3.45,1.26,4.64,1.85,1.19.59,2.22,1.44,3.09,2.56.87,1.12,1.3,2.56,1.3,4.33s-.43,3.21-1.28,4.58c-.85,1.37-2.09,2.46-3.72,3.28-1.62.81-3.54,1.22-5.75,1.22s-4.09-.35-5.8-1.05h.03Z"/>
    <path class="st1" d="M484.34,551.73l-2.73-2.65c-2.72,2.07-5.96,3.11-9.74,3.11-2.27,0-4.24-.37-5.92-1.11s-2.98-1.79-3.88-3.15c-.91-1.36-1.37-2.95-1.37-4.77s.5-3.52,1.49-5.02,2.48-2.72,4.47-3.67c-.73-.9-1.25-1.76-1.55-2.58-.31-.83-.46-1.73-.46-2.71,0-1.4.36-2.67,1.09-3.82.73-1.15,1.79-2.05,3.17-2.71,1.39-.66,3.03-.99,4.94-.99s3.57.35,4.91,1.05c1.34.7,2.35,1.64,3.02,2.81s.98,2.46.92,3.86h-6.76c.03-.76-.16-1.34-.57-1.74-.41-.41-.94-.61-1.62-.61s-1.23.2-1.68.59-.67.9-.67,1.51.19,1.2.57,1.85c.38.64.97,1.39,1.79,2.23l7.18,7.01c.06-.14.13-.31.23-.5.1-.2.2-.42.32-.67l1.55-2.65h7.18l-2.02,3.65c-.76,1.65-1.62,3.22-2.6,4.7l7.1,6.97h-8.36,0ZM477.2,544.8l-6.55-6.34c-2.02,1.04-3.02,2.44-3.02,4.2,0,1.06.41,1.95,1.24,2.67.83.71,1.94,1.07,3.34,1.07,1.88,0,3.54-.53,5-1.6h-.01Z"/>
    <path class="st1" d="M511.26,522.25v17.64c0,1.76.43,3.12,1.3,4.07s2.14,1.43,3.82,1.43,2.97-.48,3.86-1.43c.9-.95,1.34-2.31,1.34-4.07v-17.64h7.18v17.6c0,2.63-.56,4.86-1.68,6.68s-2.62,3.19-4.51,4.12c-1.89.92-4,1.39-6.32,1.39s-4.4-.46-6.24-1.37c-1.83-.91-3.28-2.28-4.35-4.12-1.06-1.83-1.6-4.07-1.6-6.7v-17.6h7.2Z"/>
    <path class="st1" d="M541,522.25v29.48h-7.18v-29.48h7.18Z"/>
    <path class="st1" d="M562.21,511.83l-11.26,47.75h-6.93l11.26-47.75h6.93Z"/>
    <path class="st1" d="M572.29,522.25v17.64c0,1.76.43,3.12,1.3,4.07s2.14,1.43,3.82,1.43,2.97-.48,3.86-1.43,1.34-2.31,1.34-4.07v-17.64h7.18v17.6c0,2.63-.56,4.86-1.68,6.68s-2.62,3.19-4.52,4.12c-1.89.92-4,1.39-6.32,1.39s-4.4-.46-6.24-1.37c-1.83-.91-3.28-2.28-4.35-4.12-1.06-1.83-1.6-4.07-1.6-6.7v-17.6h7.21Z"/>
    <path class="st1" d="M612.9,551.73l-6.01-9.03-5.29,9.03h-8.15l9.45-14.99-9.66-14.49h8.36l5.92,8.9,5.21-8.9h8.15l-9.37,14.87,9.74,14.62h-8.36,0Z"/>
    <path class="st1" d="M652.97,524.1c2.32,1.23,4.12,2.96,5.4,5.19,1.27,2.23,1.91,4.8,1.91,7.71s-.64,5.45-1.91,7.69c-1.27,2.24-3.08,3.98-5.42,5.21-2.34,1.23-5.05,1.85-8.13,1.85h-11.05v-29.48h11.05c3.11,0,5.82.62,8.15,1.85v-.02ZM650.7,543.29c1.51-1.48,2.27-3.58,2.27-6.3s-.76-4.83-2.27-6.34-3.63-2.27-6.34-2.27h-3.4v17.14h3.4c2.71,0,4.83-.74,6.34-2.23Z"/>
    <path class="st1" d="M671.49,528v5.96h9.62v5.54h-9.62v6.47h10.88v5.75h-18.06v-29.48h18.06v5.75h-10.88Z"/>
    <path class="st1" d="M691.9,550.98c-1.71-.7-3.07-1.74-4.09-3.11s-1.56-3.02-1.62-4.96h7.64c.11,1.09.49,1.93,1.13,2.5s1.48.86,2.52.86,1.9-.25,2.52-.74.92-1.17.92-2.04c0-.73-.25-1.33-.73-1.81-.49-.48-1.09-.87-1.81-1.18-.71-.31-1.73-.66-3.04-1.05-1.9-.59-3.46-1.18-4.66-1.76s-2.24-1.46-3.11-2.6c-.87-1.15-1.3-2.65-1.3-4.49,0-2.74.99-4.89,2.98-6.45,1.99-1.55,4.58-2.33,7.77-2.33s5.87.78,7.85,2.33c1.99,1.55,3.05,3.72,3.19,6.49h-7.77c-.06-.95-.41-1.7-1.05-2.25s-1.47-.82-2.48-.82c-.87,0-1.57.23-2.1.69-.53.46-.8,1.13-.8,2,0,.95.45,1.69,1.34,2.23.9.53,2.3,1.11,4.2,1.72,1.9.64,3.45,1.26,4.64,1.85s2.22,1.44,3.09,2.56,1.3,2.56,1.3,4.33-.43,3.21-1.28,4.58c-.85,1.37-2.09,2.46-3.72,3.28s-3.54,1.22-5.75,1.22-4.09-.35-5.8-1.05h.02Z"/>
    <path class="st1" d="M720.04,522.25v29.48h-7.18v-29.48h7.18Z"/>
    <path class="st1" d="M744.82,531.57c-.53-.98-1.29-1.73-2.29-2.25-.99-.52-2.16-.78-3.51-.78-2.32,0-4.19.76-5.59,2.29-1.4,1.53-2.1,3.56-2.1,6.11,0,2.72.73,4.84,2.21,6.36,1.47,1.53,3.49,2.29,6.07,2.29,1.76,0,3.25-.45,4.47-1.34,1.22-.9,2.11-2.18,2.67-3.86h-9.11v-5.29h15.62v6.68c-.53,1.79-1.44,3.46-2.71,5s-2.89,2.79-4.85,3.74-4.17,1.43-6.64,1.43c-2.91,0-5.51-.64-7.79-1.91-2.28-1.27-4.06-3.04-5.33-5.31s-1.91-4.86-1.91-7.77.64-5.51,1.91-7.79c1.27-2.28,3.04-4.06,5.31-5.33s4.86-1.91,7.77-1.91c3.53,0,6.5.85,8.92,2.56s4.03,4.07,4.81,7.1h-7.94v-.02Z"/>
    <path class="st1" d="M783.63,551.73h-7.18l-12.01-18.19v18.19h-7.18v-29.48h7.18l12.01,18.27v-18.27h7.18v29.48Z"/>
  </g>
  <g>
    <g>
      <path class="st0" d="M130.32,279.46c.08,1.27.15,2.54.21,3.82l-.05-1.07c1.39,31.61-5.2,62.85-13.83,93.09-4.39,15.37-9.31,30.58-14.15,45.81-4.98,15.68-9.96,31.37-14.94,47.05-5.59,17.58-11.17,35.17-16.76,52.75l22.33-9.3-.33-7.68c.24-.67.09-1.14-.47-1.4-.51-.51-1.15-.69-1.94-.53-2.35-.06-5.33,1.03-7.41,1.92-2.93,1.26-5.88,2.75-8.4,4.73l-1.99,1.66c-.95.8-1.65,1.77-2.12,2.9l.33,7.68c-.24.67-.09,1.14.47,1.4.51.51,1.15.69,1.94.53,2.35.06,5.33-1.03,7.41-1.92,2.93-1.26,5.88-2.75,8.4-4.73,1.54-1.21,3.49-2.62,4.11-4.57,5.06-15.92,10.11-31.84,15.17-47.76,5.08-16,10.16-32,15.25-48,4.93-15.51,9.95-30.99,14.5-46.61s8.48-31.01,11.22-46.85c2.73-15.77,4.2-31.8,3.62-47.81-.08-2.19-.19-4.37-.33-6.55-.09-1.36-4.21-.66-4.44-.62-2.81.5-5.85,1.76-8.35,3.09s-5.31,2.89-7.37,4.99l-1.4,1.55c-.67.71-.9,1.51-.67,2.42h-.01Z"/>
      <path class="st0" d="M157.84,288.71c20.16-6.96,40.31-13.91,60.47-20.87s40.31-13.91,60.47-20.87c11.34-3.91,22.68-7.83,34.01-11.74l-10.55-9.63c-8.14,7.61-16.28,15.22-24.42,22.84-1.61,1.51-3.69,3.51-3.85,5.92-.13,2.04,1.23,3.78,3.11,4.47,2.55.94,5.51.87,8.11.21,3.04-.76,6.39-1.99,8.71-4.16,8.14-7.61,16.28-15.22,24.42-22.84,1.54-1.44,2.96-2.84,3.56-4.93.44-1.52.31-3.28-1.05-4.4-3.59-2.96-9.13-1.66-13.07-.3-20.16,6.96-40.31,13.91-60.47,20.87s-40.31,13.91-60.47,20.87c-11.34,3.91-22.68,7.83-34.01,11.74-2.63.91-5.72,2.91-7.49,5.1-1.12,1.38-2.56,3.97-1.63,5.87,2.46,5.02,10.17,3.21,14.15,1.84h0Z"/>
      <path class="st0" d="M83.8,385.86c2.3-1.39,4.61-2.76,6.94-4.11.52-.3,1.03-.6,1.55-.9,1.71-.99-2.83,1.62-1.53.88.26-.15.52-.3.78-.44,1.23-.7,2.47-1.4,3.71-2.09,4.63-2.58,9.3-5.08,14.01-7.51,9.49-4.89,19.14-9.47,28.93-13.72,4.86-2.11,9.76-4.15,14.68-6.1.62-.25,1.25-.49,1.87-.74.14-.06-3.16,1.23-1.6.62.28-.11.56-.22.84-.32,1.32-.51,2.65-1.02,3.98-1.52,2.44-.92,4.9-1.82,7.36-2.71,10.05-3.61,20.21-6.88,30.47-9.83,11.55-3.31,23.23-6.2,34.99-8.65l-2.67.56c8.6-1.79,17.25-3.32,25.94-4.68,3.04-.47,5.86-1.61,8.41-3.33,2.29-1.54,5.04-3.96,6.27-6.52.81-1.69,1.82-4.2.45-5.9s-3.59-2.14-5.63-1.82c-25.52,3.98-50.76,9.69-75.4,17.43s-48.95,17.43-72.23,28.87c-13.46,6.61-26.6,13.87-39.44,21.61-2.36,1.42-4.98,4.05-6.27,6.52-.78,1.5-1.73,4.3-.45,5.9,3.43,4.27,10.59.57,14.04-1.51h0Z"/>
    </g>
    <path class="st0" d="M363.39,279.64c3.39-3.06,3.71-7.94,1.75-11.88-3.93-7.9-12.46-12.14-20.91-13.5-7.78-1.25-15.31.26-22.02,4.28-5.09,3.05-9.88,6.6-14.64,10.13-17.46,12.97-33.81,27.42-48.85,43.14-15.02,15.69-28.85,32.65-40.94,50.71-12.37,18.47-23.4,39.72-21.4,62.63.84,9.59,4.49,18.88,10.3,26.55s13.59,13.92,22.02,18.42c10.01,5.34,20.93,8.97,32.19,10.49,10.07,1.36,20.52,1.27,30.43-1.09,5.38-1.28,10.66-2.9,15.74-5.1s9.62-4.75,14.18-7.61c8.39-5.26,15.99-11.73,22.83-18.87,6.94-7.25,13.12-15.2,18.67-23.55,6.32-9.52,11.97-19.47,16.79-29.82,9.32-20.02,15.63-41.45,18.61-63.34.74-5.47,1.28-10.97,1.61-16.48.34-5.83.53-11.75-.16-17.57s-2.48-11.31-5.7-16.14c-3.87-5.81-9.88-9.98-16.18-12.78-3.69-1.64-7.88-2.82-11.89-3.26-2.96-.33-5.4-.37-8.35-.11-1.78.15-3.46.64-5.19,1.12s-2.77,2.18-2.38,3.85c.47,2,3.03,3.89,4.63,4.79,5.13,2.89,11.29,4.24,17.02,2.64l.35-.1-2.19.58c.7-.18,1.4-.28,2.12-.4,1.57-.25-2.84.07-1.26.08.35,0,.71.01,1.06.02-2.38-.22-3.1-.28-2.15-.18.18.02.35.04.53.07.18.02.35.05.52.08,1.03.18.24,0-2.39-.52.35.09.69.18,1.03.27,1.75.48-3.47-1.32-1.79-.63.33.14.67.27,1,.41,1.54.64-2.94-1.57-1.42-.71.62.35,1.24.83,1.88,1.13l-1.6-1.11c.2.14.4.29.59.44.24.19.49.38.72.58.62.51,1.2,1.06,1.77,1.63l-1.58-1.62c1.65,1.71,3.03,3.61,4.13,5.71l-.85-1.64c2.93,5.81,3.81,12.27,3.93,18.71l-.03-1.56c.1,7.74-.57,15.53-1.51,23.21s-2.31,15.38-4.07,22.95c-3.54,15.21-8.7,30.05-15.36,44.18-3.75,7.95-7.98,15.67-12.66,23.12l.83-1.32c-9.2,14.58-20.16,28.24-33.61,39.13-3.72,3.01-7.63,5.8-11.72,8.3l1.58-.96c-7.27,4.42-15.07,7.89-23.29,10.09l2.19-.58c-2.29.6-4.6,1.11-6.94,1.48-.99.15-1.98.29-2.97.4-.55.06-1.11.11-1.66.16-.22.02-.44.03-.67.05-1.57.13,2.83-.16,1.34-.09-2.23.11-4.46.13-6.7.03-.56-.02-1.12-.06-1.68-.09-.22-.02-.45-.03-.67-.05l2.36.2-.33-.03c-1.17-.11-2.34-.24-3.5-.41-1.05-.15-2.1-.32-3.15-.52-.65-.12-2.77-.57-.02.02s.36.07-.33-.1c-1.03-.25-2.05-.52-3.07-.82-.48-.14-.96-.29-1.44-.44-.27-.08-.53-.17-.79-.26-1.94-.64,3.17,1.12,1.88.66-2.03-.73-4.04-1.52-6-2.43-.25-.12-.5-.24-.75-.35-.85-.4-2.06-1.09,1.69.84-.44-.23-.88-.45-1.32-.68-1.02-.54-2.02-1.1-3-1.7s-2.01-1.29-3.02-1.95c-.2-.13,2.51,1.78,1.4.97-.26-.19-.53-.38-.79-.57-.48-.35-.95-.71-1.42-1.08-1.9-1.5-3.7-3.12-5.39-4.86l1.58,1.62c-3.28-3.41-6.08-7.23-8.26-11.43l.85,1.64c-3.47-6.76-5.18-14.25-5.35-21.84l.03,1.56c-.27-18.33,7.95-35.71,17.48-50.92l-.83,1.32c10.54-16.75,22.99-32.46,36.22-47.16s27.65-28.44,43-40.97c4.32-3.53,8.72-6.96,13.19-10.3s8.99-6.76,13.76-9.69l-1.58.96c2.36-1.42,4.81-2.65,7.47-3.4l-2.19.58c.54-.14,1.09-.27,1.64-.37.27-.05.55-.09.83-.12,1.03-.1.55-.08-1.43.07.28-.01.56-.01.84,0,1.15.05.56,0-1.77-.17.28.03.56.07.85.12-2.72-.63-3.57-.81-2.55-.54,1.22.34-3.96-1.39-1.92-.65-2.27-1.16-2.92-1.48-1.94-.96.17.09.34.19.5.3-1.78-1.27-2.28-1.61-1.48-1.02.16.12.31.24.46.37.3.26.58.53.86.81l-1.58-1.62c.74.8,1.37,1.66,1.88,2.61l-.85-1.64c.68,1.34,1.11,2.75,1.14,4.26l-.03-1.56c-.02,1.26-.32,2.41-.99,3.48l.83-1.32c-.32.46-.68.87-1.1,1.24-1.42,1.28-.89,3.18.05,4.52,1.4,2,4.32,3.64,6.5,4.5,2.96,1.17,6.22,2.1,9.43,2.04,2.18-.04,4.73-.16,6.44-1.71h.05Z"/>
    <path class="st0" d="M451.27,271.72c.35.18.65.37.95.62l-1.67-1.41c.33.32.59.66.82,1.05l-.93-1.81c.38.78.54,1.59.59,2.45l-.07-2.03c.03,1.82-.4,3.6-1.03,5.3l.77-2.04c-2.26,5.87-4.98,11.61-7.47,17.39s-5.02,11.63-7.52,17.44c-5.08,11.78-10.16,23.56-15.24,35.34-10.16,23.56-20.32,47.13-30.49,70.69-5.74,13.31-11.48,26.62-17.22,39.93-.74,1.72-1.15,3.21-.23,4.98.86,1.67,2.57,2.83,4.41,3.27,12.76,3.09,25.6.49,37.85-3.5,10.01-3.26,20.02-6.39,30.27-8.83,5.78-1.38,11.59-2.58,17.44-3.63l-3.28.58c17-3.02,34.24-4.63,51.51-4.8l-3.08.03c3.64-.03,7.29,0,10.93.1,3.28.09,6.49-.35,9.51-1.71,2.2-.99,5.24-2.9,6.36-5.21.91-1.88,1.33-4.15-.24-5.88-1.64-1.82-4.28-2.8-6.69-2.86-17.33-.45-34.71.33-51.9,2.61s-34.4,5.84-51.08,10.83c-8.88,2.65-17.58,6.21-26.73,7.88l3.28-.58c-2.43.42-4.87.7-7.34.74l3.08-.03c-2.15.02-4.27-.14-6.39-.52l2.74.49c-.61-.12-1.21-.25-1.81-.39l4.18,8.25c11.18-25.93,22.37-51.87,33.55-77.8s22.37-51.87,33.55-77.8c3.1-7.19,6.2-14.38,9.3-21.57,1.37-3.18,3.1-6.52,3.32-10.04.26-4.2-1-8.24-5.02-10.29-2.53-1.29-5.27-1.68-8.1-1.43-3,.27-6.66,1.37-9.13,3.17-1.85,1.35-4.21,3.3-4.43,5.77-.19,2.13.65,4.21,2.67,5.24h.01Z"/>
    <g>
      <path class="st0" d="M533.12,300.08c9.44-4.37,19.17-8.07,29.12-11.12l-1.65.5c22.79-6.92,46.63-10.32,70.44-9.95,6.65.1,13.43.31,20.02,1.22l-1.94-.28c1.66.27,3.25.78,4.79,1.48l-2.11-.99c1.11.53,2.17,1.14,3.16,1.88l-2.17-1.63c.33.26.65.53.97.8,1.26,1.08-2.5-2.74-1.1-1.13.74.95.26.28-1.45-2.03.63,1.03.24.28-1.18-2.25.64,1.42-1.07-3.61-.64-1.69l-.51-2.67c.04.24.06.47.07.72l.04-2.33c0,.42-.07.8-.18,1.2l.6-1.86c-.23.63-.55,1.14-.98,1.65-1.29,1.53-.56,5.29-.14,6.86.8,2.95,2.54,6.22,4.56,8.51,1.68,1.91,3.83,4.22,6.4,4.82l1.94.28c1.26-.08,2.2-.67,2.83-1.76,1.74-2.07,2.07-5.18,1.74-7.76-.66-5.18-3.28-10.28-6.73-14.15-3.91-4.39-9.15-8.17-15-9.43-2.76-.6-5.65-.76-8.46-.98-2.55-.2-5.11-.37-7.67-.48-4.97-.23-9.94-.29-14.91-.19-20.27.41-40.47,3.52-59.93,9.22-11.34,3.32-22.42,7.37-33.15,12.33-1.79.83-1.94,3.92-1.83,5.45.22,2.84,1.58,6.12,3.12,8.47s3.6,5.09,6.23,6.53c1.83,1,3.66,1.71,5.7.76h0Z"/>
      <path class="st0" d="M452.8,490.76c5.53-2.73,11.1-5.36,16.72-7.88,1.26-.57,2.53-1.13,3.8-1.69.7-.31,1.41-.62,2.12-.93,1.42-.62-1.17.51-1.15.5.48-.23.99-.43,1.49-.64,2.76-1.18,5.53-2.34,8.32-3.47,11.27-4.59,22.7-8.79,34.27-12.58,5.86-1.92,11.75-3.73,17.67-5.44.3-.09.59-.17.89-.26l-2.02.58c.22-.06.44-.13.67-.19.67-.19,1.33-.38,2-.56,1.56-.43,3.12-.86,4.68-1.28,2.9-.78,5.81-1.54,8.72-2.26,11.8-2.96,23.71-5.5,35.7-7.61,6.71-1.18,13.48-2.62,19.49-6.01,4.87-2.75,10.1-7.23,9.06-13.47-.3-1.79-2.59-2.64-4.03-3.05-2.73-.78-6.17-.8-8.95-.43s-6.07.93-8.62,2.43c-1.29.76-3.55,2.04-3.24,3.87.16.96.17,1.89,0,2.85l.3-1.35c-.3,1.36-.94,2.53-1.82,3.6l1.12-1.31c-.85.97-1.84,1.78-2.91,2.49l1.83-1.21c-.81.52-1.64.98-2.51,1.39-.2.09-.41.17-.6.27-.18.09,2.79-1.15,1.51-.66-.52.2-1.04.4-1.56.58-.42.14-.85.27-1.27.41-1.44.46,2.26-.63,1.95-.56-.27.06-.53.14-.8.21-.98.25-1.97.45-2.97.62-5.31.93-10.62,1.88-15.9,2.95-10.72,2.16-21.37,4.66-31.94,7.5-21.96,5.9-43.57,13.03-64.62,21.63-12.08,4.94-24,10.27-35.71,16.04-1.23.61-3.44,2.15-3.24,3.87s2.7,2.71,4.03,3.05c5.65,1.43,12.36.57,17.56-2h-.04Z"/>
      <path class="st0" d="M580.55,274.23c-6.3,25.37-12.6,50.75-18.9,76.12-6.26,25.21-12.52,50.42-18.78,75.64-3.53,14.22-7.06,28.44-10.6,42.67-1.53,6.17,3.82,12.32,9.71,13.45s13.02-1.26,14.64-7.79c6.3-25.37,12.6-50.75,18.9-76.12,6.26-25.21,12.52-50.42,18.78-75.64,3.53-14.22,7.06-28.44,10.6-42.67,1.53-6.17-3.82-12.32-9.71-13.45s-13.02,1.26-14.64,7.79h0Z"/>
    </g>
    <path class="st0" d="M774.39,329.18c6.59-7.2,3.48-18.43-3.6-24.02-4.61-3.64-11.11-4.86-16.84-4.94-6.87-.1-13.79,1.18-20.37,3.1-12.38,3.61-24.06,8.72-35.22,15.19-9.19,5.33-17.8,11.74-25.84,18.67-15.8,13.62-29.46,29.67-42.08,46.23-6.59,8.65-13.06,17.45-18.39,26.95s-9.88,19.9-11.49,30.85c-2.57,17.47,2.44,37.38,16.87,48.59,9.07,7.05,21.1,9.27,32.35,9.05,12.6-.25,24.98-2.77,36.9-6.8,21.2-7.17,40.74-19.88,56.43-35.78s27.99-35.29,37.68-55.73c4.79-10.1,8.97-20.49,12.79-31,1.88-5.18,3.68-10.4,5.42-15.63,1.85-5.57,3.62-11.18,4.76-16.94,2.18-11.01,1.71-22.55-3.97-32.45-4.86-8.48-12.26-15.28-20.03-21.06-3.8-2.83-7.73-5.46-11.69-8.05-1.75-1.15-4.47-1.01-6.41-.78-3.06.36-6.48,1.43-9.21,2.85-2.18,1.14-4.92,2.53-6.24,4.69-.76,1.25-1.47,2.95.12,3.99,9.53,6.24,19.18,12.79,26.45,21.68l-.87-1.07c5.84,7.23,9.3,15.67,9.55,25.02l-.03-1.38c.19,11.78-3.83,23.15-7.58,34.16-3.56,10.45-7.38,20.82-11.71,30.97-2.48,5.81-5.13,11.54-7.98,17.17l.78-1.54c-7.9,15.53-17.42,30.32-29.29,43.11l1.49-1.61c-4.34,4.65-8.95,9.03-13.86,13.07-1.22,1.01-2.47,2-3.73,2.96-.21.16-.42.32-.63.48l1.48-1.12c-.21.16-.42.32-.64.47-.74.55-1.49,1.09-2.25,1.62-2.58,1.83-5.23,3.56-7.93,5.18-.62.37-1.24.74-1.87,1.1l-.17.1c-.99.57-.45.26,1.61-.91-.34.19-.69.38-1.03.57-1.49.82-3,1.61-4.53,2.36-1.29.64-2.59,1.25-3.9,1.84-.36.16-.72.32-1.07.47-1.76.78,3.4-1.43,1.62-.7-.72.3-1.45.6-2.18.88-1.45.57-2.92,1.11-4.4,1.62-.74.25-1.48.49-2.23.73-1.61.52,2.37-.72,2.06-.63-.5.14-1,.3-1.5.44-1.5.43-3.01.83-4.53,1.19-.63.15-1.27.29-1.91.43-.38.08-.76.16-1.15.24-.26.05-.51.1-.77.15,2.33-.44,2.94-.55,1.82-.35-3.53.63-7.07,1.07-10.64,1.32-1.8.13,2.71-.12.9-.06-.51.02-1.02.04-1.53.05-.95.02-1.89.03-2.84,0-2.04-.04-4.07-.17-6.09-.41l2.18.26c-4.02-.5-7.95-1.44-11.7-2.97l1.59.67c-5.64-2.38-10.48-6.09-14.33-10.84l.87,1.07c-6.82-8.56-10.07-19.51-10.37-30.35l.03,1.38c-.27-12.07,3.47-23.76,8.86-34.44l-.78,1.54c4.52-8.9,10.16-17.16,16.07-25.17,5.48-7.42,11.13-14.71,17.05-21.77,3.38-4.03,6.84-7.98,10.42-11.84l-1.49,1.61c4.38-4.72,8.93-9.28,13.69-13.62,2.36-2.15,4.77-4.25,7.23-6.29,1.23-1.01,2.47-2.01,3.72-2.99.52-.41,1.05-.81,1.57-1.21,1.37-1.05-2.23,1.66-.84.64.42-.31.85-.63,1.27-.94,2.55-1.86,5.15-3.65,7.81-5.35,1.33-.85,2.67-1.67,4.02-2.47.56-.33,1.13-.66,1.7-.99-4.1,2.38-.88.5.11-.03,2.76-1.49,5.58-2.89,8.46-4.17.36-.16.72-.32,1.08-.47l-2.34,1c.24-.1.48-.2.73-.31.61-.25,1.21-.5,1.82-.74,1.59-.63,3.19-1.23,4.81-1.79.87-.3,1.75-.6,2.63-.88.25-.08.51-.16.76-.24-2.55.78-3.23.99-2.04.63.25-.08.51-.15.76-.23,1.89-.55,3.79-1.02,5.71-1.44s-3.18.56-1.3.25c.42-.07.84-.14,1.26-.2.98-.14,1.97-.24,2.95-.33,1.77-.16-2.73.08-.96.06.56,0,1.12-.02,1.68,0,.97.02,1.94.09,2.9.2l-2.18-.26c2.06.27,4.04.76,5.97,1.53l-1.59-.67c2.56,1.08,4.72,2.61,6.5,4.75l-.87-1.07c2.25,2.8,3.68,6.23,3.79,9.84l-.03-1.38c.02,1.92-.35,3.76-1.22,5.48l.78-1.54c-.44.82-.97,1.55-1.6,2.24-1.08,1.18-1.14,2.98.12,3.99,1.51,1.2,4.74,1.01,6.41.78,5.78-.81,11.48-3.21,15.45-7.55h0l.02.04Z"/>
  </g>
  <path class="st1" d="M13.58,443.09c-.42,17.54-.84,35.07-1.26,52.61l-1.26,52.61-.16,6.73c-.04,1.46-.32,3.35,1.07,4.3,1.59,1.09,4,1.03,5.84.94,2.22-.11,4.44-.28,6.66-.42,8.72-.55,17.43-1.11,26.15-1.66,17.6-1.12,35.19-2.24,52.79-3.35s35.03-2.23,52.54-3.34c2.16-.14,4.32-.27,6.47-.41.58-.04,1.62-.13.95-.76s-2.61-.5-3.4-.45c-17.02,1.08-34.03,2.16-51.05,3.24-17.1,1.09-34.2,2.17-51.29,3.26-8.47.54-16.93,1.08-25.4,1.61-4.32.27-8.63.55-12.95.82-1,.06-1.99.13-2.99.19-.26.02-1.57.07-.4.04,1.05-.03.33.07.29-.27-.03-.24-.22-.51-.27-.76-.38-1.84,0-4,.04-5.87.41-17.04.82-34.08,1.23-51.11s.82-34.08,1.23-51.11l.16-6.48c.02-.93-4.97-1.18-4.99-.35h0Z"/>
  <path class="st1" d="M773.51,47.31c1.73,1.64,2.54,1.99,2.43,1.05,0-.06-.01-.13-.02-.19.06-.17.03-.37.14-.55.3-.48.98-.57,1.49-.61,1.55-.14,3.17,0,4.72,0,3.23,0,6.46.03,9.69.04,6.55.03,13.09.05,19.64.08l-3.65-2.1c-1.39,19.5-2.78,39-4.16,58.51-.4,5.56-.79,11.12-1.19,16.68-.1,1.46,4.54,3.14,4.67,1.34,1.39-19.5,2.78-39,4.16-58.51.4-5.56.79-11.12,1.19-16.68.09-1.33-2.74-2.09-3.65-2.1-8.37-.04-16.74-.07-25.11-.11-2.07,0-4.14-.02-6.21-.03-1.66,0-3.6-.24-5.13.55-1.18.61-1.6,1.88-1,3.08.77,1.52,2.95,2.56,4.61,2.39.96-.1,1.29-.69.63-1.46s-2.19-1.5-3.25-1.39h0Z"/>
  <g>
    <path class="st1" d="M756.76,174.9c2.74-2.27,4.91-4.13,6.49-5.59s2.92-2.98,4.01-4.58c1.09-1.6,1.64-3.15,1.64-4.66,0-1.15-.27-2.04-.8-2.69-.53-.64-1.33-.97-2.39-.97s-1.9.4-2.5,1.2-.9,1.93-.9,3.38h-6.93c.06-2.38.57-4.37,1.53-5.96.97-1.6,2.24-2.77,3.82-3.53s3.34-1.13,5.27-1.13c3.33,0,5.84.85,7.54,2.56,1.69,1.71,2.54,3.93,2.54,6.68,0,3-1.02,5.77-3.07,8.34-2.04,2.56-4.65,5.06-7.81,7.5h11.34v5.84h-21.08v-5.33c.95-.76,1.39-1.11,1.3-1.05h0Z"/>
    <path class="st1" d="M782.48,154.57c1.86-2.77,4.87-4.16,9.01-4.16s7.15,1.39,9.01,4.16,2.79,6.57,2.79,11.38-.93,8.69-2.79,11.47c-1.86,2.77-4.87,4.16-9.01,4.16s-7.15-1.39-9.01-4.16-2.79-6.59-2.79-11.47.93-8.61,2.79-11.38ZM795.32,159.42c-.62-1.53-1.89-2.29-3.82-2.29s-3.21.76-3.82,2.29c-.62,1.53-.92,3.7-.92,6.53,0,1.9.11,3.48.34,4.73.22,1.25.68,2.25,1.37,3.02s1.7,1.15,3.04,1.15,2.36-.38,3.04-1.15c.69-.77,1.14-1.78,1.36-3.02.22-1.25.34-2.82.34-4.73,0-2.83-.31-5-.92-6.53h-.01Z"/>
    <path class="st1" d="M756.76,225.3c2.74-2.27,4.91-4.13,6.49-5.59s2.92-2.98,4.01-4.58c1.09-1.6,1.64-3.15,1.64-4.66,0-1.15-.27-2.04-.8-2.69-.53-.64-1.33-.97-2.39-.97s-1.9.4-2.5,1.2-.9,1.93-.9,3.38h-6.93c.06-2.38.57-4.37,1.53-5.96.97-1.6,2.24-2.77,3.82-3.53s3.34-1.13,5.27-1.13c3.33,0,5.84.85,7.54,2.56,1.69,1.71,2.54,3.93,2.54,6.68,0,3-1.02,5.77-3.07,8.34-2.04,2.56-4.65,5.06-7.81,7.5h11.34v5.84h-21.08v-5.33c.95-.76,1.39-1.11,1.3-1.05h0Z"/>
    <path class="st1" d="M779.86,226.64v-5.8l13.27-18.98h8.02v18.56h3.44v6.22h-3.44v5.46h-7.18v-5.46h-14.11ZM794.48,209.76l-7.06,10.67h7.06v-10.67Z"/>
  </g>
  <g>
    <path class="st1" d="M22.98,328.19v-5.73c0-1.14-1.09-2.05-2.06-2.48-.56-.25-2.39-.68-2.39.48v72.05c0,1.14,1.09,2.05,2.06,2.48.56.25,2.39.68,2.39-.48v-72.05c0-1.14-1.09-2.05-2.06-2.48-.56-.25-2.39-.68-2.39.48v5.73c0,1.14,1.09,2.05,2.06,2.48.56.25,2.39.68,2.39-.48h0Z"/>
    <path class="st1" d="M7.33,343.12c10.49,7.71,20.3,16.33,29.35,25.69.77.8,2.31,1.23,3.39,1.01,1.02-.21,1.21-.94.5-1.68-9.3-9.63-19.42-18.42-30.21-26.35-.81-.59-2.46-1.06-3.4-.55-1.02.55-.27,1.4.38,1.88h-.01Z"/>
    <path class="st1" d="M4.77,371.73c10.89-11.59,22.84-22.2,35.71-31.56.99-.72,1.16-1.85.36-2.82-.67-.82-2.39-1.57-3.39-.84-13.17,9.57-25.42,20.32-36.57,32.19-1.9,2.02,2.16,4.87,3.89,3.04h0Z"/>
  </g>
  <g>
    <g>
      <path class="st1" d="M622.04,633.92c7.89-17.01,16.56-33.64,25.98-49.85l-2.14.51c1.71,14.49-2.9,28.67-4.02,43.01-.07.95,2.17-.01,2.25-.95,1.12-14.36,5.73-28.51,4.02-43.01-.13-1.1-1.89.09-2.14.51-9.42,16.2-18.1,32.84-25.98,49.85-.61,1.33,1.65.75,2.03-.08h0Z"/>
      <path class="st1" d="M636.46,618.67c1.82-1.61,3.71-3.12,5.7-4.52,1.24-.87,4.64-3.88,6.05-2.15,1.22,1.49,1.27,4.21,1.6,6,.47,2.59.95,5.19,1.42,7.78.08.43,1.26,2.16,1.83,1.48,1.48-1.81,2.97-3.61,4.45-5.42l-.8-.1c.45.31.68,1.24.9,1.72.29.63.61,1.24,1.06,1.78.74.89,1.89,1.72,3.11,1.53,2.5-.39,2.9-3.99,5.09-4.97l-1.52-1.08c.84,1.5,1.69,2.99,2.53,4.49.21.37,1.38,1.66,1.75.87,6.17-13.35,12.37-26.87,15.17-41.4.14-.73-1.63-2.4-1.89-1.53-2.2,7.24-3.85,14.63-4.91,22.12-.51,3.59-.97,7.24-1.13,10.87-.09,2.12.87,5.03,3.37,5.21.18.01.36-.03.42-.22,2.06-6.87,4.13-13.73,6.19-20.6l-1.91-1.34c-.21,7.14-.37,14.29-.48,21.44-.01.68.99,1.66,1.68,1.55.97-.15,1.94-.29,2.91-.44.79-.12-.62-2.08-1.44-1.96-.97.15-1.94.29-2.91.44l1.68,1.55c.11-7.15.27-14.29.48-21.44.02-.57-1.64-2.21-1.91-1.34-2.06,6.87-4.13,13.73-6.19,20.6l.42-.22c-.53-.04-.05.2-.16-.03-.12-.26-.16-.55-.2-.83-.08-.57-.04-1.13,0-1.7.11-1.6.25-3.21.42-4.81.32-3.09.75-6.16,1.27-9.22,1.04-6.12,2.48-12.17,4.28-18.11l-1.89-1.53c-2.8,14.53-9,28.04-15.17,41.4l1.75.87c-.84-1.5-1.69-2.99-2.53-4.49-.19-.34-.98-1.33-1.52-1.08-1.05.48-1.74,1.3-2.38,2.23-.58.84-1.14,2-2.07,2.53-1.33.75-1.61-.62-2.06-1.58-.56-1.18-1.27-2.14-2.35-2.88-.17-.12-.62-.31-.8-.1-1.48,1.81-2.97,3.61-4.45,5.42l1.83,1.48c-.6-3.3-1.21-6.6-1.81-9.9-.41-2.26-.92-4.61-2.66-6.26-.71-.67-1.6-1.19-2.6-1.25-1.34-.08-2.51.74-3.58,1.43-2.74,1.76-5.33,3.75-7.77,5.91-.6.54,1.1,2.37,1.73,1.81h0Z"/>
    </g>
    <g>
      <path class="st1" d="M698.58,632.44c6.37-15.69,13.37-31.13,20.99-46.25l-1.99-1.44c-1.03,16.87-2.76,33.69-5.2,50.42-.08.57,1.95,1.77,2.01,1.34,2.43-16.73,4.17-33.55,5.2-50.42.03-.43-1.8-1.82-1.99-1.44-7.62,15.12-14.62,30.56-20.99,46.25-.24.59,1.86,1.82,1.97,1.54h0Z"/>
      <path class="st1" d="M709.92,613.07c3.77,2.9,8.35,4.38,13.09,4.4l-.65-.2c-.41,3.26,1.39,6.46,4.38,7.82.48.22,2.09.22,2.39-.33,1.2-2.18,2.39-4.35,3.59-6.53l-2.44.25c.78,2.32,1.47,4.69,2.34,6.98.64,1.7,1.89,2.24,3.65,1.96s3.07-1.37,3.96-2.89c1.16-1.98,1.95-4.29,2.77-6.43,3.37-8.86,5.35-18.23,5.87-27.69.3-5.39.1-10.79-.55-16.15-.05-.45-2.47-.18-2.48.34-.13,16.52-.26,33.05-.39,49.57,0,.41,2.3.17,2.44-.25,1.65-4.74,3.31-9.48,4.96-14.22l-2.44.25c-.61,5.5,0,11.03,1.78,16.27.18.52,2.21.12,2.44-.25,1.54-2.39,3.08-4.79,4.62-7.18l-2.39.33c.83.98,1.65,1.95,2.48,2.93.31.37,2.18.09,2.39-.33,1.65-3.27,5.05-3.38,8.24-2.69s6.51,1.53,9.92,1.75c7.03.45,14.03-.67,20.94-1.82.17-.03,1.28-.18,1.19-.5s-1.1-.19-1.28-.16c-8,1.33-16.28,2.74-24.35,1.11-3.44-.69-6.79-1.9-10.35-1.45-2.64.34-5.44,1.4-6.71,3.9l2.39-.33c-.83-.98-1.65-1.95-2.48-2.93-.33-.39-2.13-.07-2.39.33-1.54,2.39-3.08,4.79-4.62,7.18l2.44-.25c-1.79-5.24-2.39-10.77-1.78-16.27.04-.35-2.29-.2-2.44.25-1.65,4.74-3.31,9.48-4.96,14.22l2.44-.25c.13-16.52.26-33.05.39-49.57l-2.48.34c2.03,16.63-.47,34.04-7.6,49.25-.39.84-.88,1.64-1.54,2.3-.21.21-.5.35-.7.56.29-.3.5.36-.02-.19-.4-.43-.67-.84-.88-1.4-.86-2.29-1.56-4.66-2.34-6.98-.17-.5-2.23-.14-2.44.25-1.2,2.18-2.39,4.35-3.59,6.53l2.39-.33c-2.95-1.34-4.67-4.44-4.27-7.66.02-.19-.58-.2-.65-.2-4.34-.02-8.47-1.53-11.9-4.16-.36-.28-1.15-.11-1.55-.02-.12.03-1.11.29-.81.52h0l-.02.02Z"/>
    </g>
  </g>
  <path class="st1" d="M15.4,31.51c5.43-10.62,12.77-20.18,21.62-28.17l-4.09-2.72c.38,4.81.79,9.69,2.34,14.29,1.42,4.22,3.85,7.76,7.32,10.55,3.28,2.63,7.36,4.95,11.67,5.04,3.7.07,6.7-1.81,9.23-4.34s4.5-5.45,7.48-7.28c1.38-.85,2.92-1.29,4.54-1.17.34.02.67.07,1,.15.14.03.65.29.79.26.11-.03.05-.06-.22-.16-.31-.12.07.09.22.24,2.17,2.19,3.59,5.09,5.38,7.58,2.13,2.97,4.9,5.5,8.2,7.12,5.24,2.56,10.14.03,14.32-3.3s8.09-8.03,13.21-10.17c1.08-.45,2.25-.74,3.43-.74.52,0,1.03.05,1.54.17.27.07.54.19.81.25.45.11.03.08-.14-.15.57.74,1.39,1.42,2.04,2.1.83.87,1.7,1.69,2.64,2.43,1.82,1.43,3.92,2.74,6.19,3.3,3.86.96,7.78-.2,11.43-1.44,4.22-1.43,8.44-3.26,12.95-3.45,5.3-.23,10.41,1.54,15.54,2.59s10.32,1.4,15.53,1.21c10.68-.39,21.16-2.93,31.39-5.85,2.53-.72,5.06-1.47,7.58-2.22.58-.17-.94-1.34-1.1-1.47-.47-.37-2-1.71-2.7-1.5-9.94,2.96-19.96,5.89-30.26,7.29-5.14.7-10.35,1.01-15.54.7s-10.02-1.48-15.02-2.61-9.39-1.57-14.16-.32c-4.06,1.06-7.89,2.85-11.97,3.85-1.81.45-3.69.73-5.56.57-.92-.08-1.75-.31-2.61-.61,0,0-.5-.27-.25-.11.06.04.3.24.08.03-.4-.39-.78-.78-1.16-1.18-2.58-2.74-5.69-5.65-9.52-6.4-4.94-.98-9.38,2.96-12.81,5.96-3.85,3.36-8,7.94-13.21,9.03-1.14.24-2.35.29-3.49.06-.51-.11-.97-.32-1.47-.48.08.03.22.17.3.23-.11-.08-.4-.36-.58-.54-2.1-2.14-3.52-4.89-5.22-7.33-3.43-4.92-10.06-10.57-16.21-6.8-5.81,3.57-8.6,11.66-16.42,11.52-3.6-.06-6.42-1.59-8.44-4.52-2.61-3.79-3.7-8.49-4.32-12.99-.31-2.27-.5-4.55-.68-6.82-.05-.68-3.5-3.25-4.09-2.72-8.86,7.99-16.19,17.55-21.62,28.17-.39.77,3.87,3.3,4.09,2.87h0Z"/>
</svg>