<?xml version="1.0" encoding="UTF-8"?>
<svg xmlns="http://www.w3.org/2000/svg" version="1.1" xmlns:xlink="http://www.w3.org/1999/xlink" viewBox="0 0 100 100">
  <!-- Generator: Adobe Illustrator 29.1.0, SVG Export Plug-In . SVG Version: 2.1.0 Build 142)  -->
  <defs>
    <style>
      .st0, .st1 {
        fill: #efefef;
      }

      .st0, .st2 {
        display: none;
      }

      .st3 {
        isolation: isolate;
      }

      .st4 {
        fill: #191919;
      }
    </style>
  </defs>
  <g id="Layer_1" class="st2">
    <g id="Layer_11" data-name="Layer_1">
      <rect class="st4" width="100" height="100"/>
    </g>
    <g id="Layer_2" class="st2">
      <image class="st3" width="513" height="513" transform="scale(.2)" xlink:href="figmaLogo-1.png"/>
    </g>
    <g id="Layer_3" class="st2">
      <polygon class="st1" points="50.1 33.2 66.8 33.2 66.8 .2 33 .2 33 33.2 33 66.3 50.1 81.6 50.1 33.2"/>
      <circle class="st1" cx="66.8" cy="49.9" r="16.7"/>
      <circle class="st1" cx="66.8" cy="16.9" r="16.7"/>
      <circle class="st1" cx="33.4" cy="16.9" r="16.7"/>
      <circle class="st1" cx="33.4" cy="49.9" r="16.7"/>
      <circle class="st1" cx="33.4" cy="83.3" r="16.7"/>
    </g>
  </g>
  <g id="Layer_21" data-name="Layer_2" class="st2">
    <path class="st1" d="M72,34.5v27c0,1.3.2,3.5,1.8,5.2,2.6,2.8,8.1,3.1,13-.1v-32h11.9v36.4l.7,7.7h-10.5l-1.4-3.4c-6.2,5.2-15.8,5.6-21,1.9s-6.4-15.2-6.4-15.6v-27h12Z"/>
    <image class="st2" width="500" height="500" transform="scale(.2)" xlink:href="AuLogo.png"/>
    <polygon class="st1" points="20.3 20.6 35.5 20.6 56.2 78.5 43.4 78.5 38.3 64.5 17.5 64.5 12.9 78.5 1 78.5 20.3 23.8 20.3 20.6"/>
    <polygon class="st4" points="27.7 30.8 35.2 53.9 20.5 53.9 27.7 30.8"/>
  </g>
  <g id="Layer_31" data-name="Layer_3" class="st2">
    <image class="st2" width="500" height="500" transform="translate(-.4 -.4) scale(.2)" xlink:href="AiLogo.png"/>
    <polygon class="st1" points="31.8 20.2 49.1 20.2 67.2 78.4 53.2 78.4 48.7 63.4 31.8 63.4 27.7 78.4 14 78.4 31.8 20.2"/>
    <polygon class="st4" points="46.9 53.7 33.6 53.7 40.1 29 46.9 53.7"/>
    <rect class="st1" x="72.5" y="36.1" width="13" height="42.2"/>
    <circle class="st1" cx="79" cy="24.4" r="6.5"/>
  </g>
  <g id="Layer_4">
    <image class="st2" width="500" height="500" transform="scale(.2)" xlink:href="PrLogo.png"/>
    <g class="st2">
      <polygon class="st1" points="12.4 21.2 12.4 78.2 24 78.2 24 60.1 24 21.2 12.4 21.2"/>
      <path class="st1" d="M24,60.1c1.1,0,4,0,5.8,0,3.9,0,7.3,0,11.6-1.5s6.2-3.6,8.6-6.6c1.2-1.6,3.3-5.7,3.5-11.9.1-4.2-1-7.2-2-8.9-4.3-7.9-15.2-11.9-27.5-10v38.9Z"/>
      <path class="st4" d="M31.3,31.5h-7.3v18.5h7.3c5.8,0,10-3.9,10.1-9.1,0-5.3-3.9-9.3-10.1-9.3Z"/>
      <polygon class="st1" points="12.4 21.2 30.9 20.7 30.9 22.7 16 25.3 12.4 21.2"/>
    </g>
    <path class="st1" d="M60.7,34.8h10.2c.4.3.9.7,1.2,1.2.6,1.1.7,2,.7,4.8,4.6-5.2,9.5-7,14.7-6.8v11.8c-3.2,0-5.8.4-8.7,1.2-1.8.5-3.5,1.7-5.4,2.8v28.6h-12.2c.5-11.4-.3-41-.4-43.5Z"/>
    <g id="Layer_6">
      <g>
        <g>
          <polygon class="st1" points="12.4 21.2 12.4 78.3 24 78.3 24 60.1 24 21.2 12.4 21.2"/>
          <path class="st1" d="M23.8,60c1.1,0,4.3.1,6.1,0,3.9,0,7.3,0,11.6-1.5s6.2-3.6,8.6-6.6c1.2-1.6,3.3-5.7,3.5-11.9.1-4.2-1-7.2-2-8.9-4.3-7.9-15.5-11.9-27.7-10v38.8Z"/>
          <path class="st4" d="M31.3,31.5h-7.3v18.5h7.3c5.8,0,10-3.9,10.1-9.1,0-5.3-3.9-9.3-10.1-9.3Z"/>
          <polygon class="st1" points="12.4 21.2 29.8 20.7 29.8 22.7 14.9 25.3 12.4 21.2"/>
        </g>
        <path class="st0" d="M84.5,37.9l-2.6,9.9s-4.7-2.5-8.5-2.5-8.1,2.6,0,5.8,12.5,5.6,12.5,13.4-4.1,11.5-13.1,13.4-18.5-2.8-18.5-2.8l2.7-10.2s6.1,3.2,11.1,3.2,7-3.9,0-6.1-12.7-6.1-12.8-12.6c-.1-6.5,4.6-12.5,12.5-13.8s16.8,2.3,16.8,2.3Z"/>
      </g>
    </g>
  </g>
  <g id="Layer_5" class="st2">
    <image class="st2" width="500" height="500" transform="translate(.3) scale(.2)" xlink:href="PsLogo.png"/>
    <g>
      <g>
        <polygon class="st1" points="14.1 21.7 14.1 78.8 25.7 78.8 25.7 60.6 25.7 21.7 14.1 21.7"/>
        <path class="st1" d="M25.4,60.5c1.1,0,4.3.1,6.1,0,3.9,0,7.3,0,11.6-1.5s6.2-3.6,8.6-6.6c1.2-1.6,3.3-5.7,3.5-11.9.1-4.2-1-7.2-2-8.9-4.3-7.9-15.5-11.9-27.7-10v38.8Z"/>
        <path class="st4" d="M33,32h-7.3v18.5h7.3c5.8,0,10-3.9,10.1-9.1,0-5.3-3.9-9.3-10.1-9.3Z"/>
        <polygon class="st1" points="14.1 21.7 31.4 21.2 31.4 23.2 16.6 25.8 14.1 21.7"/>
      </g>
      <path class="st0" d="M86.2,38.4l-2.6,9.9s-4.7-2.5-8.5-2.5-8.1,2.6,0,5.8,12.5,5.6,12.5,13.4-4.1,11.5-13.1,13.4-18.5-2.8-18.5-2.8l2.7-10.2s6.1,3.2,11.1,3.2,7-3.9,0-6.1-12.7-6.1-12.8-12.6,4.6-12.5,12.5-13.8,16.8,2.3,16.8,2.3Z"/>
    </g>
  </g>
</svg>