<?xml version="1.0" encoding="UTF-8"?>
<svg id="Layer_2" xmlns="http://www.w3.org/2000/svg" version="1.1" viewBox="0 0 220 65">
  <!-- Generator: Adobe Illustrator 29.1.0, SVG Export Plug-In . SVG Version: 2.1.0 Build 142)  -->
  <defs>
    <style>
      .st0 {
        fill: #2727ff;
      }

      .st1 {
        fill: #efefef;
      }

      .st2 {
        display: none;
      }
    </style>
  </defs>
  <path class="st0" d="M104.33,3.72c-17.3-2.82-35.05-2.7-52.31.31-8.74,1.53-17.36,3.79-25.72,6.77-4.11,1.46-8.16,3.1-12.13,4.91-3.46,1.57-7.06,3.17-9.96,5.67C1.51,23.7-.24,26.87.08,30.5c.36,4.06,2.78,8.02,5.46,10.98s5.88,5.06,9.23,7.05c3.56,2.11,7.28,3.94,11.1,5.51,15.39,6.33,32.17,8.42,48.69,9.02,18.18.66,36.48-.02,54.62-1.06,19.41-1.11,38.8-3.09,57.94-6.55,8.99-1.63,17.99-3.61,26.45-7.15,1.76-.74,3.88-1.44,5.29-2.78s1.32-3.18.69-4.94c-1.36-3.79-4.25-7.15-7.57-9.38-3.13-2.11-6.65-3.48-10.23-4.62-4.24-1.36-8.54-2.55-12.84-3.69-9.02-2.38-18.15-4.37-27.34-5.95-18.15-3.13-36.56-4.7-54.97-4.73-18.51-.03-37.02,1.53-55.26,4.67-4.45.77-8.87,1.63-13.28,2.58-.45.1,1.18,4.66,2.36,4.41,17.33-3.74,34.97-6.04,52.68-6.88,17.89-.85,35.84-.21,53.62,1.91,17.61,2.09,35.04,5.63,52.06,10.59,3.67,1.07,7.37,2.13,10.86,3.71,1.67.76,3.29,1.64,4.76,2.74.67.5,1.32,1.05,1.91,1.65.3.3.59.62.85.96.08.1.15.24.24.33.46.45-.22.11.02-.13-.08.08-.03.97-.1,1.18-.15.42-.4.77-.7,1.08-.6.63-1.38,1.06-2.15,1.44-1.95.97-4,1.8-6.04,2.56-4.1,1.54-8.32,2.75-12.58,3.77-8.82,2.11-17.83,3.54-26.81,4.79-9.23,1.29-18.49,2.28-27.78,3.04-18.18,1.48-36.45,2.16-54.69,2.25-16.13.08-32.45-.62-48.17-4.5-7.62-1.88-15.06-4.54-22.01-8.19-3.42-1.8-6.86-3.77-9.81-6.29-1.23-1.06-2.62-2.29-3.39-3.75-.65-1.23-.67-2.82-.44-4.16.62-3.51,3.3-6.04,6.17-7.91,3.31-2.15,7.03-3.72,10.65-5.27,7.75-3.33,15.77-6.02,23.96-8.04,16.46-4.08,33.57-5.51,50.47-4.12,4.13.34,8.24.85,12.33,1.52.73.12-.08-1.66-.18-1.88-.27-.6-1.02-2.38-1.82-2.51h0Z"/>
  <g class="st2">
    <path class="st1" d="M22.47,24.11v3.29h-4.46v13.56h-4.1v-13.56h-4.46v-3.29h13.03Z"/>
    <path class="st1" d="M28.15,40.02c-1.32-.74-2.37-1.76-3.14-3.08-.78-1.32-1.16-2.8-1.16-4.45s.39-3.13,1.16-4.44c.78-1.31,1.82-2.34,3.14-3.07,1.32-.74,2.77-1.1,4.36-1.1s3.04.37,4.36,1.1,2.36,1.76,3.12,3.07c.76,1.31,1.14,2.79,1.14,4.44s-.38,3.13-1.15,4.45c-.77,1.32-1.81,2.35-3.12,3.08s-2.76,1.1-4.34,1.1-3.04-.37-4.36-1.1ZM35.73,36.04c.81-.9,1.21-2.08,1.21-3.55s-.4-2.68-1.21-3.56c-.81-.89-1.88-1.33-3.23-1.33s-2.44.44-3.25,1.32c-.81.88-1.21,2.07-1.21,3.58s.4,2.68,1.21,3.56c.81.89,1.89,1.33,3.25,1.33s2.42-.45,3.23-1.34Z"/>
    <path class="st1" d="M60.65,32.21c-.45.81-1.14,1.46-2.06,1.96-.93.5-2.08.74-3.46.74h-2.54v6.05h-4.1v-16.85h6.65c1.34,0,2.48.23,3.41.7.93.46,1.62,1.1,2.09,1.92s.7,1.75.7,2.81c0,.98-.22,1.87-.67,2.68ZM56.57,31.1c.38-.37.58-.89.58-1.56s-.19-1.19-.58-1.56c-.38-.37-.97-.55-1.75-.55h-2.23v4.22h2.23c.78,0,1.37-.18,1.75-.55Z"/>
    <path class="st1" d="M67.07,40.02c-1.32-.74-2.37-1.76-3.14-3.08-.78-1.32-1.16-2.8-1.16-4.45s.39-3.13,1.16-4.44c.78-1.31,1.82-2.34,3.14-3.07,1.32-.74,2.77-1.1,4.36-1.1s3.04.37,4.36,1.1,2.36,1.76,3.12,3.07c.76,1.31,1.14,2.79,1.14,4.44s-.38,3.13-1.15,4.45c-.77,1.32-1.81,2.35-3.12,3.08s-2.76,1.1-4.34,1.1-3.04-.37-4.36-1.1ZM74.66,36.04c.81-.9,1.21-2.08,1.21-3.55s-.4-2.68-1.21-3.56c-.81-.89-1.88-1.33-3.23-1.33s-2.44.44-3.25,1.32c-.81.88-1.21,2.07-1.21,3.58s.4,2.68,1.21,3.56c.81.89,1.89,1.33,3.25,1.33s2.42-.45,3.23-1.34Z"/>
    <path class="st1" d="M90.92,40.96l-3.5-6.36h-.98v6.36h-4.1v-16.85h6.89c1.33,0,2.46.23,3.4.7s1.64,1.1,2.1,1.91c.46.81.7,1.71.7,2.7,0,1.12-.32,2.12-.95,3-.63.88-1.56,1.5-2.8,1.87l3.89,6.67h-4.63ZM86.43,31.7h2.54c.75,0,1.32-.18,1.69-.55.38-.37.56-.89.56-1.56s-.19-1.14-.56-1.51c-.38-.37-.94-.55-1.69-.55h-2.54v4.18Z"/>
    <path class="st1" d="M110.09,24.11v3.29h-4.46v13.56h-4.1v-13.56h-4.46v-3.29h13.03Z"/>
    <path class="st1" d="M123.12,24.11v3.29h-6.86v3.55h5.14v3.19h-5.14v6.82h-4.1v-16.85h10.97Z"/>
    <path class="st1" d="M128.9,40.02c-1.32-.74-2.37-1.76-3.14-3.08-.78-1.32-1.16-2.8-1.16-4.45s.39-3.13,1.16-4.44c.78-1.31,1.82-2.34,3.14-3.07,1.32-.74,2.77-1.1,4.36-1.1s3.04.37,4.36,1.1c1.32.74,2.36,1.76,3.12,3.07.76,1.31,1.14,2.79,1.14,4.44s-.38,3.13-1.15,4.45c-.77,1.32-1.81,2.35-3.12,3.08-1.31.74-2.76,1.1-4.34,1.1s-3.04-.37-4.36-1.1ZM136.48,36.04c.81-.9,1.21-2.08,1.21-3.55s-.4-2.68-1.21-3.56c-.81-.89-1.88-1.33-3.23-1.33s-2.44.44-3.25,1.32-1.21,2.07-1.21,3.58.4,2.68,1.21,3.56c.81.89,1.89,1.33,3.25,1.33s2.42-.45,3.23-1.34Z"/>
    <path class="st1" d="M148.25,37.79h5.38v3.17h-9.48v-16.85h4.1v13.68Z"/>
    <path class="st1" d="M159.7,24.11v16.85h-4.1v-16.85h4.1Z"/>
    <path class="st1" d="M166.29,40.02c-1.32-.74-2.37-1.76-3.14-3.08-.78-1.32-1.16-2.8-1.16-4.45s.39-3.13,1.16-4.44c.78-1.31,1.82-2.34,3.14-3.07,1.32-.74,2.77-1.1,4.36-1.1s3.04.37,4.36,1.1c1.32.74,2.36,1.76,3.12,3.07.76,1.31,1.14,2.79,1.14,4.44s-.38,3.13-1.15,4.45c-.77,1.32-1.81,2.35-3.12,3.08s-2.76,1.1-4.34,1.1-3.04-.37-4.36-1.1ZM173.87,36.04c.81-.9,1.21-2.08,1.21-3.55s-.4-2.68-1.21-3.56c-.81-.89-1.88-1.33-3.23-1.33s-2.44.44-3.25,1.32c-.81.88-1.21,2.07-1.21,3.58s.4,2.68,1.21,3.56c.81.89,1.89,1.33,3.25,1.33s2.42-.45,3.23-1.34Z"/>
    <path class="st1" d="M196.95,30.83v3.41h-10.56v-3.41h10.56Z"/>
    <path class="st1" d="M200.57,27.26h5.16l4.87,5.3-4.87,5.3h-5.16l4.9-5.3-4.9-5.3Z"/>
  </g>
  <g class="st2">
    <path class="st1" d="M27.21,24.11v3.29h-4.46v13.56h-4.1v-13.56h-4.46v-3.29h13.03Z"/>
    <path class="st1" d="M32.88,40.02c-1.32-.74-2.37-1.76-3.14-3.08-.78-1.32-1.16-2.8-1.16-4.45s.39-3.13,1.16-4.44c.78-1.31,1.82-2.34,3.14-3.07,1.32-.74,2.77-1.1,4.36-1.1s3.04.37,4.36,1.1,2.36,1.76,3.12,3.07c.76,1.31,1.14,2.79,1.14,4.44s-.38,3.13-1.15,4.45c-.77,1.32-1.81,2.35-3.12,3.08s-2.76,1.1-4.34,1.1-3.04-.37-4.36-1.1ZM40.47,36.04c.81-.9,1.21-2.08,1.21-3.55s-.4-2.68-1.21-3.56c-.81-.89-1.88-1.33-3.23-1.33s-2.44.44-3.25,1.32c-.81.88-1.21,2.07-1.21,3.58s.4,2.68,1.21,3.56c.81.89,1.89,1.33,3.25,1.33s2.42-.45,3.23-1.34Z"/>
    <path class="st1" d="M63.71,37.98h-6.29l-1.01,2.98h-4.3l6.1-16.85h4.75l6.1,16.85h-4.34l-1.01-2.98ZM62.66,34.82l-2.09-6.17-2.06,6.17h4.15Z"/>
    <path class="st1" d="M83.46,33.77c.59.76.89,1.63.89,2.6,0,1.41-.49,2.52-1.48,3.35-.98.82-2.36,1.24-4.12,1.24h-7.85v-16.85h7.58c1.71,0,3.05.39,4.02,1.18.97.78,1.45,1.85,1.45,3.19,0,.99-.26,1.82-.78,2.47-.52.66-1.21,1.11-2.08,1.37.98.21,1.76.69,2.35,1.45ZM75.02,30.93h2.69c.67,0,1.19-.15,1.55-.44.36-.3.54-.73.54-1.31s-.18-1.02-.54-1.32c-.36-.3-.88-.46-1.55-.46h-2.69v3.53ZM79.64,37.18c.38-.31.56-.76.56-1.36s-.2-1.06-.59-1.39-.93-.5-1.62-.5h-2.98v3.72h3.02c.69,0,1.22-.16,1.6-.47Z"/>
    <path class="st1" d="M90.34,40.02c-1.32-.74-2.37-1.76-3.14-3.08-.78-1.32-1.16-2.8-1.16-4.45s.39-3.13,1.16-4.44c.78-1.31,1.82-2.34,3.14-3.07,1.32-.74,2.77-1.1,4.36-1.1s3.04.37,4.36,1.1,2.36,1.76,3.12,3.07c.76,1.31,1.14,2.79,1.14,4.44s-.38,3.13-1.15,4.45c-.77,1.32-1.81,2.35-3.12,3.08s-2.76,1.1-4.34,1.1-3.04-.37-4.36-1.1ZM97.92,36.04c.81-.9,1.21-2.08,1.21-3.55s-.4-2.68-1.21-3.56c-.81-.89-1.88-1.33-3.23-1.33s-2.44.44-3.25,1.32c-.81.88-1.21,2.07-1.21,3.58s.4,2.68,1.21,3.56c.81.89,1.89,1.33,3.25,1.33s2.42-.45,3.23-1.34Z"/>
    <path class="st1" d="M109.62,24.11v10.08c0,1.01.25,1.78.74,2.33.5.54,1.22.82,2.18.82s1.7-.27,2.21-.82c.51-.54.77-1.32.77-2.33v-10.08h4.1v10.06c0,1.5-.32,2.78-.96,3.82s-1.5,1.82-2.58,2.35c-1.08.53-2.28.79-3.61.79s-2.52-.26-3.56-.78c-1.05-.52-1.88-1.3-2.48-2.35-.61-1.05-.91-2.32-.91-3.83v-10.06h4.1Z"/>
    <path class="st1" d="M134.63,24.11v3.29h-4.46v13.56h-4.1v-13.56h-4.46v-3.29h13.03Z"/>
    <path class="st1" d="M160.86,24.11v16.85h-4.1v-10.1l-3.77,10.1h-3.31l-3.79-10.13v10.13h-4.1v-16.85h4.85l4.73,11.66,4.68-11.66h4.82Z"/>
    <path class="st1" d="M167.92,27.4v3.41h5.5v3.17h-5.5v3.7h6.22v3.29h-10.32v-16.85h10.32v3.29h-6.22Z"/>
    <path class="st1" d="M192.21,30.83v3.41h-10.56v-3.41h10.56Z"/>
    <path class="st1" d="M195.83,27.26h5.16l4.87,5.3-4.87,5.3h-5.16l4.9-5.3-4.9-5.3Z"/>
  </g>
  <g class="st2">
    <path class="st1" d="M33.21,23.83l-4.39,16.85h-4.97l-2.69-11.09-2.78,11.09h-4.97l-4.27-16.85h4.39l2.42,12.26,3-12.26h4.51l2.88,12.26,2.45-12.26h4.42Z"/>
    <path class="st1" d="M45.76,37.7h-6.29l-1.01,2.98h-4.3l6.1-16.85h4.75l6.1,16.85h-4.34l-1.01-2.98ZM44.71,34.54l-2.09-6.17-2.06,6.17h4.15Z"/>
    <path class="st1" d="M65.08,23.83v3.29h-4.46v13.56h-4.1v-13.56h-4.46v-3.29h13.03Z"/>
    <path class="st1" d="M67.53,27.78c.72-1.3,1.72-2.32,3.01-3.05,1.29-.73,2.75-1.09,4.38-1.09,2,0,3.71.53,5.14,1.58,1.42,1.06,2.38,2.5,2.86,4.32h-4.51c-.34-.7-.81-1.24-1.43-1.61-.62-.37-1.32-.55-2.1-.55-1.26,0-2.29.44-3.07,1.32-.78.88-1.18,2.06-1.18,3.53s.39,2.65,1.18,3.53c.78.88,1.81,1.32,3.07,1.32.78,0,1.48-.18,2.1-.55.62-.37,1.09-.9,1.43-1.61h4.51c-.48,1.82-1.43,3.26-2.86,4.31-1.42,1.05-3.14,1.57-5.14,1.57-1.63,0-3.09-.36-4.38-1.09-1.29-.73-2.29-1.74-3.01-3.04-.72-1.3-1.08-2.78-1.08-4.44s.36-3.15,1.08-4.45Z"/>
    <path class="st1" d="M100.02,23.83v16.85h-4.1v-6.94h-6.38v6.94h-4.1v-16.85h4.1v6.6h6.38v-6.6h4.1Z"/>
    <path class="st1" d="M123.88,23.83l-5.98,16.85h-5.14l-5.98-16.85h4.37l4.18,12.72,4.2-12.72h4.34Z"/>
    <path class="st1" d="M129.69,23.83v16.85h-4.1v-16.85h4.1Z"/>
    <path class="st1" d="M143.63,24.89c1.33.7,2.36,1.69,3.08,2.96.73,1.27,1.09,2.74,1.09,4.4s-.36,3.11-1.09,4.39c-.73,1.28-1.76,2.27-3.1,2.98-1.34.7-2.88,1.06-4.64,1.06h-6.31v-16.85h6.31c1.78,0,3.33.35,4.66,1.06ZM142.34,35.85c.86-.85,1.3-2.05,1.3-3.6s-.43-2.76-1.3-3.62-2.07-1.3-3.62-1.3h-1.94v9.79h1.94c1.55,0,2.76-.42,3.62-1.27Z"/>
    <path class="st1" d="M154.21,27.12v3.41h5.5v3.17h-5.5v3.7h6.22v3.29h-10.32v-16.85h10.32v3.29h-6.22Z"/>
    <path class="st1" d="M166.71,39.74c-1.32-.74-2.37-1.76-3.14-3.08-.78-1.32-1.16-2.8-1.16-4.45s.39-3.13,1.16-4.44c.78-1.31,1.82-2.34,3.14-3.07,1.32-.74,2.77-1.1,4.36-1.1s3.04.37,4.36,1.1c1.32.74,2.36,1.76,3.12,3.07.76,1.31,1.14,2.79,1.14,4.44s-.38,3.13-1.15,4.45c-.77,1.32-1.81,2.35-3.12,3.08-1.31.74-2.76,1.1-4.34,1.1s-3.04-.37-4.36-1.1ZM174.29,35.76c.81-.9,1.21-2.08,1.21-3.55s-.4-2.68-1.21-3.56c-.81-.89-1.88-1.33-3.23-1.33s-2.44.44-3.25,1.32c-.81.88-1.21,2.07-1.21,3.58s.4,2.68,1.21,3.56c.81.89,1.89,1.33,3.25,1.33s2.42-.45,3.23-1.34Z"/>
    <path class="st1" d="M197.37,30.55v3.41h-10.56v-3.41h10.56Z"/>
    <path class="st1" d="M200.99,26.97h5.16l4.87,5.3-4.87,5.31h-5.16l4.9-5.31-4.9-5.3Z"/>
  </g>
  <g>
    <path class="st1" d="M36.73,23.94v3.29h-4.46v13.56h-4.1v-13.56h-4.46v-3.29h13.03Z"/>
    <path class="st1" d="M42.41,39.85c-1.32-.74-2.37-1.76-3.14-3.08-.78-1.32-1.16-2.8-1.16-4.45s.39-3.13,1.16-4.44c.78-1.31,1.82-2.34,3.14-3.07,1.32-.74,2.77-1.1,4.36-1.1s3.04.37,4.36,1.1,2.36,1.76,3.12,3.07c.76,1.31,1.14,2.79,1.14,4.44s-.38,3.13-1.15,4.45c-.77,1.32-1.81,2.35-3.12,3.08s-2.76,1.1-4.34,1.1-3.04-.37-4.36-1.1ZM49.99,35.87c.81-.9,1.21-2.08,1.21-3.55s-.4-2.68-1.21-3.56c-.81-.89-1.88-1.33-3.23-1.33s-2.44.44-3.25,1.32c-.81.88-1.21,2.07-1.21,3.58s.4,2.68,1.21,3.56c.81.89,1.89,1.33,3.25,1.33s2.42-.45,3.23-1.34Z"/>
    <path class="st1" d="M85.93,23.94l-4.39,16.85h-4.97l-2.69-11.09-2.78,11.09h-4.97l-4.27-16.85h4.39l2.42,12.26,3-12.26h4.51l2.88,12.26,2.45-12.26h4.42Z"/>
    <path class="st1" d="M92.1,27.23v3.41h5.5v3.17h-5.5v3.7h6.22v3.29h-10.32v-16.85h10.32v3.29h-6.22Z"/>
    <path class="st1" d="M113.53,33.6c.59.76.89,1.63.89,2.6,0,1.41-.49,2.52-1.48,3.35-.98.82-2.36,1.24-4.12,1.24h-7.85v-16.85h7.58c1.71,0,3.05.39,4.02,1.18.97.78,1.45,1.85,1.45,3.19,0,.99-.26,1.82-.78,2.47-.52.66-1.21,1.11-2.08,1.37.98.21,1.76.69,2.35,1.45ZM105.08,30.76h2.69c.67,0,1.19-.15,1.55-.44.36-.3.54-.73.54-1.31s-.18-1.02-.54-1.32c-.36-.3-.88-.46-1.55-.46h-2.69v3.53ZM109.7,37.01c.38-.31.56-.76.56-1.36s-.2-1.06-.59-1.39-.93-.5-1.62-.5h-2.98v3.72h3.02c.69,0,1.22-.16,1.6-.47Z"/>
    <path class="st1" d="M119.58,40.36c-.98-.4-1.76-.99-2.34-1.78-.58-.78-.89-1.73-.92-2.83h4.37c.06.62.28,1.1.65,1.43s.85.49,1.44.49,1.09-.14,1.44-.42c.35-.28.53-.67.53-1.16,0-.42-.14-.76-.42-1.03-.28-.27-.62-.5-1.03-.67-.41-.18-.99-.38-1.74-.6-1.09-.34-1.98-.67-2.66-1.01-.69-.34-1.28-.83-1.78-1.49-.5-.66-.74-1.51-.74-2.57,0-1.57.57-2.8,1.7-3.68,1.14-.89,2.62-1.33,4.44-1.33s3.35.44,4.49,1.33c1.14.89,1.74,2.12,1.82,3.71h-4.44c-.03-.54-.23-.97-.6-1.28-.37-.31-.84-.47-1.42-.47-.5,0-.9.13-1.2.4-.3.26-.46.64-.46,1.14,0,.54.26.97.77,1.27.51.3,1.31.63,2.4.98,1.09.37,1.97.72,2.65,1.06s1.27.82,1.77,1.46c.49.64.74,1.46.74,2.47s-.24,1.83-.73,2.62c-.49.78-1.2,1.41-2.12,1.87s-2.02.7-3.29.7-2.34-.2-3.31-.6Z"/>
    <path class="st1" d="M135.66,23.94v16.85h-4.1v-16.85h4.1Z"/>
    <path class="st1" d="M150.76,23.94v3.29h-4.46v13.56h-4.1v-13.56h-4.46v-3.29h13.03Z"/>
    <path class="st1" d="M156.92,27.23v3.41h5.5v3.17h-5.5v3.7h6.22v3.29h-10.32v-16.85h10.32v3.29h-6.22Z"/>
    <path class="st1" d="M181.21,30.66v3.41h-10.56v-3.41h10.56Z"/>
    <path class="st1" d="M184.84,27.08h5.16l4.87,5.3-4.87,5.3h-5.16l4.9-5.3-4.9-5.3Z"/>
  </g>
</svg>